G04 #@! TF.GenerationSoftware,KiCad,Pcbnew,(5.0.1-53-g1ecfe45ab)*
G04 #@! TF.CreationDate,2019-03-07T10:28:32+01:00*
G04 #@! TF.ProjectId,motordriver-2x,6d6f746f-7264-4726-9976-65722d32782e,Rev A*
G04 #@! TF.SameCoordinates,Original*
G04 #@! TF.FileFunction,Paste,Top*
G04 #@! TF.FilePolarity,Positive*
%FSLAX46Y46*%
G04 Gerber Fmt 4.6, Leading zero omitted, Abs format (unit mm)*
G04 Created by KiCad (PCBNEW (5.0.1-53-g1ecfe45ab)) date Thu 07 Mar 2019 10:28:32 AM CET*
%MOMM*%
%LPD*%
G01*
G04 APERTURE LIST*
%ADD10R,0.300000X1.500000*%
%ADD11R,1.500000X0.300000*%
%ADD12R,1.240000X1.240000*%
%ADD13R,1.150000X1.400000*%
%ADD14C,0.050000*%
%ADD15C,0.250000*%
%ADD16R,0.700000X0.250000*%
%ADD17R,0.250000X0.700000*%
%ADD18R,0.920000X0.920000*%
%ADD19R,1.500000X0.970000*%
%ADD20R,1.100000X1.400000*%
%ADD21R,1.910000X0.610000*%
%ADD22R,0.820000X1.150000*%
%ADD23R,4.600000X3.050000*%
%ADD24R,0.500000X1.150000*%
%ADD25R,3.500000X5.100000*%
%ADD26R,0.575000X0.650000*%
%ADD27R,0.650000X0.575000*%
%ADD28R,1.200000X1.800000*%
%ADD29R,3.810000X4.240000*%
%ADD30R,1.200000X0.600000*%
%ADD31R,0.650000X0.600000*%
%ADD32R,1.400000X1.600000*%
%ADD33R,1.900000X1.900000*%
%ADD34R,1.350000X0.400000*%
%ADD35R,1.600000X3.500000*%
%ADD36R,0.970000X1.500000*%
%ADD37R,1.070000X2.700000*%
%ADD38R,2.300000X2.500000*%
%ADD39R,0.900000X1.200000*%
%ADD40R,1.200000X0.900000*%
%ADD41R,1.000000X0.670000*%
%ADD42R,1.060000X0.650000*%
%ADD43R,0.670000X1.000000*%
%ADD44R,2.500000X3.300000*%
%ADD45R,2.000000X1.500000*%
%ADD46R,2.000000X3.800000*%
%ADD47R,0.900000X0.800000*%
%ADD48R,4.550000X5.250000*%
%ADD49R,4.600000X1.100000*%
%ADD50R,0.600000X2.000000*%
%ADD51R,0.960000X1.030000*%
%ADD52R,1.550000X0.300000*%
%ADD53R,2.900000X5.400000*%
%ADD54R,2.700000X1.070000*%
%ADD55R,0.980000X3.400000*%
%ADD56R,0.850000X0.660000*%
%ADD57O,0.350000X0.850000*%
%ADD58R,0.300000X1.550000*%
%ADD59R,1.500000X0.600000*%
%ADD60R,0.600000X1.500000*%
%ADD61R,1.550000X0.600000*%
%ADD62R,0.600000X1.550000*%
%ADD63R,0.450000X1.750000*%
%ADD64R,1.500000X0.450000*%
%ADD65R,0.450000X1.450000*%
%ADD66R,0.800000X0.900000*%
%ADD67R,0.650000X1.060000*%
%ADD68R,0.700000X0.450000*%
%ADD69C,0.760000*%
G04 APERTURE END LIST*
D10*
G04 #@! TO.C,U30*
X220300000Y-60900000D03*
X219800000Y-60900000D03*
X219300000Y-60900000D03*
X218800000Y-60900000D03*
X218300000Y-60900000D03*
X217800000Y-60900000D03*
X217300000Y-60900000D03*
X216800000Y-60900000D03*
X216300000Y-60900000D03*
X215800000Y-60900000D03*
X215300000Y-60900000D03*
X214800000Y-60900000D03*
X214300000Y-60900000D03*
X213800000Y-60900000D03*
X213300000Y-60900000D03*
X212800000Y-60900000D03*
D11*
X210850000Y-62850000D03*
X210850000Y-63350000D03*
X210850000Y-63850000D03*
X210850000Y-64350000D03*
X210850000Y-64850000D03*
X210850000Y-65350000D03*
X210850000Y-65850000D03*
X210850000Y-66350000D03*
X210850000Y-66850000D03*
X210850000Y-67350000D03*
X210850000Y-67850000D03*
X210850000Y-68350000D03*
X210850000Y-68850000D03*
X210850000Y-69350000D03*
X210850000Y-69850000D03*
X210850000Y-70350000D03*
D10*
X212800000Y-72300000D03*
X213300000Y-72300000D03*
X213800000Y-72300000D03*
X214300000Y-72300000D03*
X214800000Y-72300000D03*
X215300000Y-72300000D03*
X215800000Y-72300000D03*
X216300000Y-72300000D03*
X216800000Y-72300000D03*
X217300000Y-72300000D03*
X217800000Y-72300000D03*
X218300000Y-72300000D03*
X218800000Y-72300000D03*
X219300000Y-72300000D03*
X219800000Y-72300000D03*
X220300000Y-72300000D03*
D11*
X222250000Y-70350000D03*
X222250000Y-69850000D03*
X222250000Y-69350000D03*
X222250000Y-68850000D03*
X222250000Y-68350000D03*
X222250000Y-67850000D03*
X222250000Y-67350000D03*
X222250000Y-66850000D03*
X222250000Y-66350000D03*
X222250000Y-65850000D03*
X222250000Y-65350000D03*
X222250000Y-64850000D03*
X222250000Y-64350000D03*
X222250000Y-63850000D03*
X222250000Y-63350000D03*
X222250000Y-62850000D03*
D12*
X214950000Y-68200000D03*
X214950000Y-66600000D03*
X214950000Y-65000000D03*
X216550000Y-68200000D03*
X216550000Y-66600000D03*
X216550000Y-65000000D03*
X218150000Y-68200000D03*
X218150000Y-66600000D03*
X218150000Y-65000000D03*
G04 #@! TD*
D13*
G04 #@! TO.C,Y2*
X246250000Y-129000000D03*
X246250000Y-131200000D03*
X244650000Y-131200000D03*
X244650000Y-129000000D03*
G04 #@! TD*
D14*
G04 #@! TO.C,U19*
G36*
X129668626Y-80000301D02*
X129674693Y-80001201D01*
X129680643Y-80002691D01*
X129686418Y-80004758D01*
X129691962Y-80007380D01*
X129697223Y-80010533D01*
X129702150Y-80014187D01*
X129706694Y-80018306D01*
X129710813Y-80022850D01*
X129714467Y-80027777D01*
X129717620Y-80033038D01*
X129720242Y-80038582D01*
X129722309Y-80044357D01*
X129723799Y-80050307D01*
X129724699Y-80056374D01*
X129725000Y-80062500D01*
X129725000Y-80597500D01*
X129724699Y-80603626D01*
X129723799Y-80609693D01*
X129722309Y-80615643D01*
X129720242Y-80621418D01*
X129717620Y-80626962D01*
X129714467Y-80632223D01*
X129710813Y-80637150D01*
X129706694Y-80641694D01*
X129702150Y-80645813D01*
X129697223Y-80649467D01*
X129691962Y-80652620D01*
X129686418Y-80655242D01*
X129680643Y-80657309D01*
X129674693Y-80658799D01*
X129668626Y-80659699D01*
X129662500Y-80660000D01*
X129537500Y-80660000D01*
X129531374Y-80659699D01*
X129525307Y-80658799D01*
X129519357Y-80657309D01*
X129513582Y-80655242D01*
X129508038Y-80652620D01*
X129502777Y-80649467D01*
X129497850Y-80645813D01*
X129493306Y-80641694D01*
X129489187Y-80637150D01*
X129485533Y-80632223D01*
X129482380Y-80626962D01*
X129479758Y-80621418D01*
X129477691Y-80615643D01*
X129476201Y-80609693D01*
X129475301Y-80603626D01*
X129475000Y-80597500D01*
X129475000Y-80062500D01*
X129475301Y-80056374D01*
X129476201Y-80050307D01*
X129477691Y-80044357D01*
X129479758Y-80038582D01*
X129482380Y-80033038D01*
X129485533Y-80027777D01*
X129489187Y-80022850D01*
X129493306Y-80018306D01*
X129497850Y-80014187D01*
X129502777Y-80010533D01*
X129508038Y-80007380D01*
X129513582Y-80004758D01*
X129519357Y-80002691D01*
X129525307Y-80001201D01*
X129531374Y-80000301D01*
X129537500Y-80000000D01*
X129662500Y-80000000D01*
X129668626Y-80000301D01*
X129668626Y-80000301D01*
G37*
D15*
X129600000Y-80330000D03*
D14*
G36*
X129668626Y-80870301D02*
X129674693Y-80871201D01*
X129680643Y-80872691D01*
X129686418Y-80874758D01*
X129691962Y-80877380D01*
X129697223Y-80880533D01*
X129702150Y-80884187D01*
X129706694Y-80888306D01*
X129710813Y-80892850D01*
X129714467Y-80897777D01*
X129717620Y-80903038D01*
X129720242Y-80908582D01*
X129722309Y-80914357D01*
X129723799Y-80920307D01*
X129724699Y-80926374D01*
X129725000Y-80932500D01*
X129725000Y-81467500D01*
X129724699Y-81473626D01*
X129723799Y-81479693D01*
X129722309Y-81485643D01*
X129720242Y-81491418D01*
X129717620Y-81496962D01*
X129714467Y-81502223D01*
X129710813Y-81507150D01*
X129706694Y-81511694D01*
X129702150Y-81515813D01*
X129697223Y-81519467D01*
X129691962Y-81522620D01*
X129686418Y-81525242D01*
X129680643Y-81527309D01*
X129674693Y-81528799D01*
X129668626Y-81529699D01*
X129662500Y-81530000D01*
X129537500Y-81530000D01*
X129531374Y-81529699D01*
X129525307Y-81528799D01*
X129519357Y-81527309D01*
X129513582Y-81525242D01*
X129508038Y-81522620D01*
X129502777Y-81519467D01*
X129497850Y-81515813D01*
X129493306Y-81511694D01*
X129489187Y-81507150D01*
X129485533Y-81502223D01*
X129482380Y-81496962D01*
X129479758Y-81491418D01*
X129477691Y-81485643D01*
X129476201Y-81479693D01*
X129475301Y-81473626D01*
X129475000Y-81467500D01*
X129475000Y-80932500D01*
X129475301Y-80926374D01*
X129476201Y-80920307D01*
X129477691Y-80914357D01*
X129479758Y-80908582D01*
X129482380Y-80903038D01*
X129485533Y-80897777D01*
X129489187Y-80892850D01*
X129493306Y-80888306D01*
X129497850Y-80884187D01*
X129502777Y-80880533D01*
X129508038Y-80877380D01*
X129513582Y-80874758D01*
X129519357Y-80872691D01*
X129525307Y-80871201D01*
X129531374Y-80870301D01*
X129537500Y-80870000D01*
X129662500Y-80870000D01*
X129668626Y-80870301D01*
X129668626Y-80870301D01*
G37*
D15*
X129600000Y-81200000D03*
D14*
G36*
X129668626Y-81740301D02*
X129674693Y-81741201D01*
X129680643Y-81742691D01*
X129686418Y-81744758D01*
X129691962Y-81747380D01*
X129697223Y-81750533D01*
X129702150Y-81754187D01*
X129706694Y-81758306D01*
X129710813Y-81762850D01*
X129714467Y-81767777D01*
X129717620Y-81773038D01*
X129720242Y-81778582D01*
X129722309Y-81784357D01*
X129723799Y-81790307D01*
X129724699Y-81796374D01*
X129725000Y-81802500D01*
X129725000Y-82337500D01*
X129724699Y-82343626D01*
X129723799Y-82349693D01*
X129722309Y-82355643D01*
X129720242Y-82361418D01*
X129717620Y-82366962D01*
X129714467Y-82372223D01*
X129710813Y-82377150D01*
X129706694Y-82381694D01*
X129702150Y-82385813D01*
X129697223Y-82389467D01*
X129691962Y-82392620D01*
X129686418Y-82395242D01*
X129680643Y-82397309D01*
X129674693Y-82398799D01*
X129668626Y-82399699D01*
X129662500Y-82400000D01*
X129537500Y-82400000D01*
X129531374Y-82399699D01*
X129525307Y-82398799D01*
X129519357Y-82397309D01*
X129513582Y-82395242D01*
X129508038Y-82392620D01*
X129502777Y-82389467D01*
X129497850Y-82385813D01*
X129493306Y-82381694D01*
X129489187Y-82377150D01*
X129485533Y-82372223D01*
X129482380Y-82366962D01*
X129479758Y-82361418D01*
X129477691Y-82355643D01*
X129476201Y-82349693D01*
X129475301Y-82343626D01*
X129475000Y-82337500D01*
X129475000Y-81802500D01*
X129475301Y-81796374D01*
X129476201Y-81790307D01*
X129477691Y-81784357D01*
X129479758Y-81778582D01*
X129482380Y-81773038D01*
X129485533Y-81767777D01*
X129489187Y-81762850D01*
X129493306Y-81758306D01*
X129497850Y-81754187D01*
X129502777Y-81750533D01*
X129508038Y-81747380D01*
X129513582Y-81744758D01*
X129519357Y-81742691D01*
X129525307Y-81741201D01*
X129531374Y-81740301D01*
X129537500Y-81740000D01*
X129662500Y-81740000D01*
X129668626Y-81740301D01*
X129668626Y-81740301D01*
G37*
D15*
X129600000Y-82070000D03*
D14*
G36*
X129168626Y-80000301D02*
X129174693Y-80001201D01*
X129180643Y-80002691D01*
X129186418Y-80004758D01*
X129191962Y-80007380D01*
X129197223Y-80010533D01*
X129202150Y-80014187D01*
X129206694Y-80018306D01*
X129210813Y-80022850D01*
X129214467Y-80027777D01*
X129217620Y-80033038D01*
X129220242Y-80038582D01*
X129222309Y-80044357D01*
X129223799Y-80050307D01*
X129224699Y-80056374D01*
X129225000Y-80062500D01*
X129225000Y-80597500D01*
X129224699Y-80603626D01*
X129223799Y-80609693D01*
X129222309Y-80615643D01*
X129220242Y-80621418D01*
X129217620Y-80626962D01*
X129214467Y-80632223D01*
X129210813Y-80637150D01*
X129206694Y-80641694D01*
X129202150Y-80645813D01*
X129197223Y-80649467D01*
X129191962Y-80652620D01*
X129186418Y-80655242D01*
X129180643Y-80657309D01*
X129174693Y-80658799D01*
X129168626Y-80659699D01*
X129162500Y-80660000D01*
X129037500Y-80660000D01*
X129031374Y-80659699D01*
X129025307Y-80658799D01*
X129019357Y-80657309D01*
X129013582Y-80655242D01*
X129008038Y-80652620D01*
X129002777Y-80649467D01*
X128997850Y-80645813D01*
X128993306Y-80641694D01*
X128989187Y-80637150D01*
X128985533Y-80632223D01*
X128982380Y-80626962D01*
X128979758Y-80621418D01*
X128977691Y-80615643D01*
X128976201Y-80609693D01*
X128975301Y-80603626D01*
X128975000Y-80597500D01*
X128975000Y-80062500D01*
X128975301Y-80056374D01*
X128976201Y-80050307D01*
X128977691Y-80044357D01*
X128979758Y-80038582D01*
X128982380Y-80033038D01*
X128985533Y-80027777D01*
X128989187Y-80022850D01*
X128993306Y-80018306D01*
X128997850Y-80014187D01*
X129002777Y-80010533D01*
X129008038Y-80007380D01*
X129013582Y-80004758D01*
X129019357Y-80002691D01*
X129025307Y-80001201D01*
X129031374Y-80000301D01*
X129037500Y-80000000D01*
X129162500Y-80000000D01*
X129168626Y-80000301D01*
X129168626Y-80000301D01*
G37*
D15*
X129100000Y-80330000D03*
D14*
G36*
X129168626Y-80870301D02*
X129174693Y-80871201D01*
X129180643Y-80872691D01*
X129186418Y-80874758D01*
X129191962Y-80877380D01*
X129197223Y-80880533D01*
X129202150Y-80884187D01*
X129206694Y-80888306D01*
X129210813Y-80892850D01*
X129214467Y-80897777D01*
X129217620Y-80903038D01*
X129220242Y-80908582D01*
X129222309Y-80914357D01*
X129223799Y-80920307D01*
X129224699Y-80926374D01*
X129225000Y-80932500D01*
X129225000Y-81467500D01*
X129224699Y-81473626D01*
X129223799Y-81479693D01*
X129222309Y-81485643D01*
X129220242Y-81491418D01*
X129217620Y-81496962D01*
X129214467Y-81502223D01*
X129210813Y-81507150D01*
X129206694Y-81511694D01*
X129202150Y-81515813D01*
X129197223Y-81519467D01*
X129191962Y-81522620D01*
X129186418Y-81525242D01*
X129180643Y-81527309D01*
X129174693Y-81528799D01*
X129168626Y-81529699D01*
X129162500Y-81530000D01*
X129037500Y-81530000D01*
X129031374Y-81529699D01*
X129025307Y-81528799D01*
X129019357Y-81527309D01*
X129013582Y-81525242D01*
X129008038Y-81522620D01*
X129002777Y-81519467D01*
X128997850Y-81515813D01*
X128993306Y-81511694D01*
X128989187Y-81507150D01*
X128985533Y-81502223D01*
X128982380Y-81496962D01*
X128979758Y-81491418D01*
X128977691Y-81485643D01*
X128976201Y-81479693D01*
X128975301Y-81473626D01*
X128975000Y-81467500D01*
X128975000Y-80932500D01*
X128975301Y-80926374D01*
X128976201Y-80920307D01*
X128977691Y-80914357D01*
X128979758Y-80908582D01*
X128982380Y-80903038D01*
X128985533Y-80897777D01*
X128989187Y-80892850D01*
X128993306Y-80888306D01*
X128997850Y-80884187D01*
X129002777Y-80880533D01*
X129008038Y-80877380D01*
X129013582Y-80874758D01*
X129019357Y-80872691D01*
X129025307Y-80871201D01*
X129031374Y-80870301D01*
X129037500Y-80870000D01*
X129162500Y-80870000D01*
X129168626Y-80870301D01*
X129168626Y-80870301D01*
G37*
D15*
X129100000Y-81200000D03*
D14*
G36*
X129168626Y-81740301D02*
X129174693Y-81741201D01*
X129180643Y-81742691D01*
X129186418Y-81744758D01*
X129191962Y-81747380D01*
X129197223Y-81750533D01*
X129202150Y-81754187D01*
X129206694Y-81758306D01*
X129210813Y-81762850D01*
X129214467Y-81767777D01*
X129217620Y-81773038D01*
X129220242Y-81778582D01*
X129222309Y-81784357D01*
X129223799Y-81790307D01*
X129224699Y-81796374D01*
X129225000Y-81802500D01*
X129225000Y-82337500D01*
X129224699Y-82343626D01*
X129223799Y-82349693D01*
X129222309Y-82355643D01*
X129220242Y-82361418D01*
X129217620Y-82366962D01*
X129214467Y-82372223D01*
X129210813Y-82377150D01*
X129206694Y-82381694D01*
X129202150Y-82385813D01*
X129197223Y-82389467D01*
X129191962Y-82392620D01*
X129186418Y-82395242D01*
X129180643Y-82397309D01*
X129174693Y-82398799D01*
X129168626Y-82399699D01*
X129162500Y-82400000D01*
X129037500Y-82400000D01*
X129031374Y-82399699D01*
X129025307Y-82398799D01*
X129019357Y-82397309D01*
X129013582Y-82395242D01*
X129008038Y-82392620D01*
X129002777Y-82389467D01*
X128997850Y-82385813D01*
X128993306Y-82381694D01*
X128989187Y-82377150D01*
X128985533Y-82372223D01*
X128982380Y-82366962D01*
X128979758Y-82361418D01*
X128977691Y-82355643D01*
X128976201Y-82349693D01*
X128975301Y-82343626D01*
X128975000Y-82337500D01*
X128975000Y-81802500D01*
X128975301Y-81796374D01*
X128976201Y-81790307D01*
X128977691Y-81784357D01*
X128979758Y-81778582D01*
X128982380Y-81773038D01*
X128985533Y-81767777D01*
X128989187Y-81762850D01*
X128993306Y-81758306D01*
X128997850Y-81754187D01*
X129002777Y-81750533D01*
X129008038Y-81747380D01*
X129013582Y-81744758D01*
X129019357Y-81742691D01*
X129025307Y-81741201D01*
X129031374Y-81740301D01*
X129037500Y-81740000D01*
X129162500Y-81740000D01*
X129168626Y-81740301D01*
X129168626Y-81740301D01*
G37*
D15*
X129100000Y-82070000D03*
D14*
G36*
X128668626Y-80870301D02*
X128674693Y-80871201D01*
X128680643Y-80872691D01*
X128686418Y-80874758D01*
X128691962Y-80877380D01*
X128697223Y-80880533D01*
X128702150Y-80884187D01*
X128706694Y-80888306D01*
X128710813Y-80892850D01*
X128714467Y-80897777D01*
X128717620Y-80903038D01*
X128720242Y-80908582D01*
X128722309Y-80914357D01*
X128723799Y-80920307D01*
X128724699Y-80926374D01*
X128725000Y-80932500D01*
X128725000Y-81467500D01*
X128724699Y-81473626D01*
X128723799Y-81479693D01*
X128722309Y-81485643D01*
X128720242Y-81491418D01*
X128717620Y-81496962D01*
X128714467Y-81502223D01*
X128710813Y-81507150D01*
X128706694Y-81511694D01*
X128702150Y-81515813D01*
X128697223Y-81519467D01*
X128691962Y-81522620D01*
X128686418Y-81525242D01*
X128680643Y-81527309D01*
X128674693Y-81528799D01*
X128668626Y-81529699D01*
X128662500Y-81530000D01*
X128537500Y-81530000D01*
X128531374Y-81529699D01*
X128525307Y-81528799D01*
X128519357Y-81527309D01*
X128513582Y-81525242D01*
X128508038Y-81522620D01*
X128502777Y-81519467D01*
X128497850Y-81515813D01*
X128493306Y-81511694D01*
X128489187Y-81507150D01*
X128485533Y-81502223D01*
X128482380Y-81496962D01*
X128479758Y-81491418D01*
X128477691Y-81485643D01*
X128476201Y-81479693D01*
X128475301Y-81473626D01*
X128475000Y-81467500D01*
X128475000Y-80932500D01*
X128475301Y-80926374D01*
X128476201Y-80920307D01*
X128477691Y-80914357D01*
X128479758Y-80908582D01*
X128482380Y-80903038D01*
X128485533Y-80897777D01*
X128489187Y-80892850D01*
X128493306Y-80888306D01*
X128497850Y-80884187D01*
X128502777Y-80880533D01*
X128508038Y-80877380D01*
X128513582Y-80874758D01*
X128519357Y-80872691D01*
X128525307Y-80871201D01*
X128531374Y-80870301D01*
X128537500Y-80870000D01*
X128662500Y-80870000D01*
X128668626Y-80870301D01*
X128668626Y-80870301D01*
G37*
D15*
X128600000Y-81200000D03*
D14*
G36*
X128668626Y-80000301D02*
X128674693Y-80001201D01*
X128680643Y-80002691D01*
X128686418Y-80004758D01*
X128691962Y-80007380D01*
X128697223Y-80010533D01*
X128702150Y-80014187D01*
X128706694Y-80018306D01*
X128710813Y-80022850D01*
X128714467Y-80027777D01*
X128717620Y-80033038D01*
X128720242Y-80038582D01*
X128722309Y-80044357D01*
X128723799Y-80050307D01*
X128724699Y-80056374D01*
X128725000Y-80062500D01*
X128725000Y-80597500D01*
X128724699Y-80603626D01*
X128723799Y-80609693D01*
X128722309Y-80615643D01*
X128720242Y-80621418D01*
X128717620Y-80626962D01*
X128714467Y-80632223D01*
X128710813Y-80637150D01*
X128706694Y-80641694D01*
X128702150Y-80645813D01*
X128697223Y-80649467D01*
X128691962Y-80652620D01*
X128686418Y-80655242D01*
X128680643Y-80657309D01*
X128674693Y-80658799D01*
X128668626Y-80659699D01*
X128662500Y-80660000D01*
X128537500Y-80660000D01*
X128531374Y-80659699D01*
X128525307Y-80658799D01*
X128519357Y-80657309D01*
X128513582Y-80655242D01*
X128508038Y-80652620D01*
X128502777Y-80649467D01*
X128497850Y-80645813D01*
X128493306Y-80641694D01*
X128489187Y-80637150D01*
X128485533Y-80632223D01*
X128482380Y-80626962D01*
X128479758Y-80621418D01*
X128477691Y-80615643D01*
X128476201Y-80609693D01*
X128475301Y-80603626D01*
X128475000Y-80597500D01*
X128475000Y-80062500D01*
X128475301Y-80056374D01*
X128476201Y-80050307D01*
X128477691Y-80044357D01*
X128479758Y-80038582D01*
X128482380Y-80033038D01*
X128485533Y-80027777D01*
X128489187Y-80022850D01*
X128493306Y-80018306D01*
X128497850Y-80014187D01*
X128502777Y-80010533D01*
X128508038Y-80007380D01*
X128513582Y-80004758D01*
X128519357Y-80002691D01*
X128525307Y-80001201D01*
X128531374Y-80000301D01*
X128537500Y-80000000D01*
X128662500Y-80000000D01*
X128668626Y-80000301D01*
X128668626Y-80000301D01*
G37*
D15*
X128600000Y-80330000D03*
D14*
G36*
X128668626Y-81750301D02*
X128674693Y-81751201D01*
X128680643Y-81752691D01*
X128686418Y-81754758D01*
X128691962Y-81757380D01*
X128697223Y-81760533D01*
X128702150Y-81764187D01*
X128706694Y-81768306D01*
X128710813Y-81772850D01*
X128714467Y-81777777D01*
X128717620Y-81783038D01*
X128720242Y-81788582D01*
X128722309Y-81794357D01*
X128723799Y-81800307D01*
X128724699Y-81806374D01*
X128725000Y-81812500D01*
X128725000Y-82347500D01*
X128724699Y-82353626D01*
X128723799Y-82359693D01*
X128722309Y-82365643D01*
X128720242Y-82371418D01*
X128717620Y-82376962D01*
X128714467Y-82382223D01*
X128710813Y-82387150D01*
X128706694Y-82391694D01*
X128702150Y-82395813D01*
X128697223Y-82399467D01*
X128691962Y-82402620D01*
X128686418Y-82405242D01*
X128680643Y-82407309D01*
X128674693Y-82408799D01*
X128668626Y-82409699D01*
X128662500Y-82410000D01*
X128537500Y-82410000D01*
X128531374Y-82409699D01*
X128525307Y-82408799D01*
X128519357Y-82407309D01*
X128513582Y-82405242D01*
X128508038Y-82402620D01*
X128502777Y-82399467D01*
X128497850Y-82395813D01*
X128493306Y-82391694D01*
X128489187Y-82387150D01*
X128485533Y-82382223D01*
X128482380Y-82376962D01*
X128479758Y-82371418D01*
X128477691Y-82365643D01*
X128476201Y-82359693D01*
X128475301Y-82353626D01*
X128475000Y-82347500D01*
X128475000Y-81812500D01*
X128475301Y-81806374D01*
X128476201Y-81800307D01*
X128477691Y-81794357D01*
X128479758Y-81788582D01*
X128482380Y-81783038D01*
X128485533Y-81777777D01*
X128489187Y-81772850D01*
X128493306Y-81768306D01*
X128497850Y-81764187D01*
X128502777Y-81760533D01*
X128508038Y-81757380D01*
X128513582Y-81754758D01*
X128519357Y-81752691D01*
X128525307Y-81751201D01*
X128531374Y-81750301D01*
X128537500Y-81750000D01*
X128662500Y-81750000D01*
X128668626Y-81750301D01*
X128668626Y-81750301D01*
G37*
D15*
X128600000Y-82080000D03*
D14*
G36*
X130743626Y-81825301D02*
X130749693Y-81826201D01*
X130755643Y-81827691D01*
X130761418Y-81829758D01*
X130766962Y-81832380D01*
X130772223Y-81835533D01*
X130777150Y-81839187D01*
X130781694Y-81843306D01*
X130785813Y-81847850D01*
X130789467Y-81852777D01*
X130792620Y-81858038D01*
X130795242Y-81863582D01*
X130797309Y-81869357D01*
X130798799Y-81875307D01*
X130799699Y-81881374D01*
X130800000Y-81887500D01*
X130800000Y-82012500D01*
X130799699Y-82018626D01*
X130798799Y-82024693D01*
X130797309Y-82030643D01*
X130795242Y-82036418D01*
X130792620Y-82041962D01*
X130789467Y-82047223D01*
X130785813Y-82052150D01*
X130781694Y-82056694D01*
X130777150Y-82060813D01*
X130772223Y-82064467D01*
X130766962Y-82067620D01*
X130761418Y-82070242D01*
X130755643Y-82072309D01*
X130749693Y-82073799D01*
X130743626Y-82074699D01*
X130737500Y-82075000D01*
X130262500Y-82075000D01*
X130256374Y-82074699D01*
X130250307Y-82073799D01*
X130244357Y-82072309D01*
X130238582Y-82070242D01*
X130233038Y-82067620D01*
X130227777Y-82064467D01*
X130222850Y-82060813D01*
X130218306Y-82056694D01*
X130214187Y-82052150D01*
X130210533Y-82047223D01*
X130207380Y-82041962D01*
X130204758Y-82036418D01*
X130202691Y-82030643D01*
X130201201Y-82024693D01*
X130200301Y-82018626D01*
X130200000Y-82012500D01*
X130200000Y-81887500D01*
X130200301Y-81881374D01*
X130201201Y-81875307D01*
X130202691Y-81869357D01*
X130204758Y-81863582D01*
X130207380Y-81858038D01*
X130210533Y-81852777D01*
X130214187Y-81847850D01*
X130218306Y-81843306D01*
X130222850Y-81839187D01*
X130227777Y-81835533D01*
X130233038Y-81832380D01*
X130238582Y-81829758D01*
X130244357Y-81827691D01*
X130250307Y-81826201D01*
X130256374Y-81825301D01*
X130262500Y-81825000D01*
X130737500Y-81825000D01*
X130743626Y-81825301D01*
X130743626Y-81825301D01*
G37*
D15*
X130500000Y-81950000D03*
D14*
G36*
X130743626Y-80325301D02*
X130749693Y-80326201D01*
X130755643Y-80327691D01*
X130761418Y-80329758D01*
X130766962Y-80332380D01*
X130772223Y-80335533D01*
X130777150Y-80339187D01*
X130781694Y-80343306D01*
X130785813Y-80347850D01*
X130789467Y-80352777D01*
X130792620Y-80358038D01*
X130795242Y-80363582D01*
X130797309Y-80369357D01*
X130798799Y-80375307D01*
X130799699Y-80381374D01*
X130800000Y-80387500D01*
X130800000Y-80512500D01*
X130799699Y-80518626D01*
X130798799Y-80524693D01*
X130797309Y-80530643D01*
X130795242Y-80536418D01*
X130792620Y-80541962D01*
X130789467Y-80547223D01*
X130785813Y-80552150D01*
X130781694Y-80556694D01*
X130777150Y-80560813D01*
X130772223Y-80564467D01*
X130766962Y-80567620D01*
X130761418Y-80570242D01*
X130755643Y-80572309D01*
X130749693Y-80573799D01*
X130743626Y-80574699D01*
X130737500Y-80575000D01*
X130262500Y-80575000D01*
X130256374Y-80574699D01*
X130250307Y-80573799D01*
X130244357Y-80572309D01*
X130238582Y-80570242D01*
X130233038Y-80567620D01*
X130227777Y-80564467D01*
X130222850Y-80560813D01*
X130218306Y-80556694D01*
X130214187Y-80552150D01*
X130210533Y-80547223D01*
X130207380Y-80541962D01*
X130204758Y-80536418D01*
X130202691Y-80530643D01*
X130201201Y-80524693D01*
X130200301Y-80518626D01*
X130200000Y-80512500D01*
X130200000Y-80387500D01*
X130200301Y-80381374D01*
X130201201Y-80375307D01*
X130202691Y-80369357D01*
X130204758Y-80363582D01*
X130207380Y-80358038D01*
X130210533Y-80352777D01*
X130214187Y-80347850D01*
X130218306Y-80343306D01*
X130222850Y-80339187D01*
X130227777Y-80335533D01*
X130233038Y-80332380D01*
X130238582Y-80329758D01*
X130244357Y-80327691D01*
X130250307Y-80326201D01*
X130256374Y-80325301D01*
X130262500Y-80325000D01*
X130737500Y-80325000D01*
X130743626Y-80325301D01*
X130743626Y-80325301D01*
G37*
D15*
X130500000Y-80450000D03*
D14*
G36*
X130743626Y-81325301D02*
X130749693Y-81326201D01*
X130755643Y-81327691D01*
X130761418Y-81329758D01*
X130766962Y-81332380D01*
X130772223Y-81335533D01*
X130777150Y-81339187D01*
X130781694Y-81343306D01*
X130785813Y-81347850D01*
X130789467Y-81352777D01*
X130792620Y-81358038D01*
X130795242Y-81363582D01*
X130797309Y-81369357D01*
X130798799Y-81375307D01*
X130799699Y-81381374D01*
X130800000Y-81387500D01*
X130800000Y-81512500D01*
X130799699Y-81518626D01*
X130798799Y-81524693D01*
X130797309Y-81530643D01*
X130795242Y-81536418D01*
X130792620Y-81541962D01*
X130789467Y-81547223D01*
X130785813Y-81552150D01*
X130781694Y-81556694D01*
X130777150Y-81560813D01*
X130772223Y-81564467D01*
X130766962Y-81567620D01*
X130761418Y-81570242D01*
X130755643Y-81572309D01*
X130749693Y-81573799D01*
X130743626Y-81574699D01*
X130737500Y-81575000D01*
X130262500Y-81575000D01*
X130256374Y-81574699D01*
X130250307Y-81573799D01*
X130244357Y-81572309D01*
X130238582Y-81570242D01*
X130233038Y-81567620D01*
X130227777Y-81564467D01*
X130222850Y-81560813D01*
X130218306Y-81556694D01*
X130214187Y-81552150D01*
X130210533Y-81547223D01*
X130207380Y-81541962D01*
X130204758Y-81536418D01*
X130202691Y-81530643D01*
X130201201Y-81524693D01*
X130200301Y-81518626D01*
X130200000Y-81512500D01*
X130200000Y-81387500D01*
X130200301Y-81381374D01*
X130201201Y-81375307D01*
X130202691Y-81369357D01*
X130204758Y-81363582D01*
X130207380Y-81358038D01*
X130210533Y-81352777D01*
X130214187Y-81347850D01*
X130218306Y-81343306D01*
X130222850Y-81339187D01*
X130227777Y-81335533D01*
X130233038Y-81332380D01*
X130238582Y-81329758D01*
X130244357Y-81327691D01*
X130250307Y-81326201D01*
X130256374Y-81325301D01*
X130262500Y-81325000D01*
X130737500Y-81325000D01*
X130743626Y-81325301D01*
X130743626Y-81325301D01*
G37*
D15*
X130500000Y-81450000D03*
D14*
G36*
X130743626Y-80825301D02*
X130749693Y-80826201D01*
X130755643Y-80827691D01*
X130761418Y-80829758D01*
X130766962Y-80832380D01*
X130772223Y-80835533D01*
X130777150Y-80839187D01*
X130781694Y-80843306D01*
X130785813Y-80847850D01*
X130789467Y-80852777D01*
X130792620Y-80858038D01*
X130795242Y-80863582D01*
X130797309Y-80869357D01*
X130798799Y-80875307D01*
X130799699Y-80881374D01*
X130800000Y-80887500D01*
X130800000Y-81012500D01*
X130799699Y-81018626D01*
X130798799Y-81024693D01*
X130797309Y-81030643D01*
X130795242Y-81036418D01*
X130792620Y-81041962D01*
X130789467Y-81047223D01*
X130785813Y-81052150D01*
X130781694Y-81056694D01*
X130777150Y-81060813D01*
X130772223Y-81064467D01*
X130766962Y-81067620D01*
X130761418Y-81070242D01*
X130755643Y-81072309D01*
X130749693Y-81073799D01*
X130743626Y-81074699D01*
X130737500Y-81075000D01*
X130262500Y-81075000D01*
X130256374Y-81074699D01*
X130250307Y-81073799D01*
X130244357Y-81072309D01*
X130238582Y-81070242D01*
X130233038Y-81067620D01*
X130227777Y-81064467D01*
X130222850Y-81060813D01*
X130218306Y-81056694D01*
X130214187Y-81052150D01*
X130210533Y-81047223D01*
X130207380Y-81041962D01*
X130204758Y-81036418D01*
X130202691Y-81030643D01*
X130201201Y-81024693D01*
X130200301Y-81018626D01*
X130200000Y-81012500D01*
X130200000Y-80887500D01*
X130200301Y-80881374D01*
X130201201Y-80875307D01*
X130202691Y-80869357D01*
X130204758Y-80863582D01*
X130207380Y-80858038D01*
X130210533Y-80852777D01*
X130214187Y-80847850D01*
X130218306Y-80843306D01*
X130222850Y-80839187D01*
X130227777Y-80835533D01*
X130233038Y-80832380D01*
X130238582Y-80829758D01*
X130244357Y-80827691D01*
X130250307Y-80826201D01*
X130256374Y-80825301D01*
X130262500Y-80825000D01*
X130737500Y-80825000D01*
X130743626Y-80825301D01*
X130743626Y-80825301D01*
G37*
D15*
X130500000Y-80950000D03*
D14*
G36*
X127943626Y-80325301D02*
X127949693Y-80326201D01*
X127955643Y-80327691D01*
X127961418Y-80329758D01*
X127966962Y-80332380D01*
X127972223Y-80335533D01*
X127977150Y-80339187D01*
X127981694Y-80343306D01*
X127985813Y-80347850D01*
X127989467Y-80352777D01*
X127992620Y-80358038D01*
X127995242Y-80363582D01*
X127997309Y-80369357D01*
X127998799Y-80375307D01*
X127999699Y-80381374D01*
X128000000Y-80387500D01*
X128000000Y-80512500D01*
X127999699Y-80518626D01*
X127998799Y-80524693D01*
X127997309Y-80530643D01*
X127995242Y-80536418D01*
X127992620Y-80541962D01*
X127989467Y-80547223D01*
X127985813Y-80552150D01*
X127981694Y-80556694D01*
X127977150Y-80560813D01*
X127972223Y-80564467D01*
X127966962Y-80567620D01*
X127961418Y-80570242D01*
X127955643Y-80572309D01*
X127949693Y-80573799D01*
X127943626Y-80574699D01*
X127937500Y-80575000D01*
X127462500Y-80575000D01*
X127456374Y-80574699D01*
X127450307Y-80573799D01*
X127444357Y-80572309D01*
X127438582Y-80570242D01*
X127433038Y-80567620D01*
X127427777Y-80564467D01*
X127422850Y-80560813D01*
X127418306Y-80556694D01*
X127414187Y-80552150D01*
X127410533Y-80547223D01*
X127407380Y-80541962D01*
X127404758Y-80536418D01*
X127402691Y-80530643D01*
X127401201Y-80524693D01*
X127400301Y-80518626D01*
X127400000Y-80512500D01*
X127400000Y-80387500D01*
X127400301Y-80381374D01*
X127401201Y-80375307D01*
X127402691Y-80369357D01*
X127404758Y-80363582D01*
X127407380Y-80358038D01*
X127410533Y-80352777D01*
X127414187Y-80347850D01*
X127418306Y-80343306D01*
X127422850Y-80339187D01*
X127427777Y-80335533D01*
X127433038Y-80332380D01*
X127438582Y-80329758D01*
X127444357Y-80327691D01*
X127450307Y-80326201D01*
X127456374Y-80325301D01*
X127462500Y-80325000D01*
X127937500Y-80325000D01*
X127943626Y-80325301D01*
X127943626Y-80325301D01*
G37*
D15*
X127700000Y-80450000D03*
D14*
G36*
X127943626Y-80825301D02*
X127949693Y-80826201D01*
X127955643Y-80827691D01*
X127961418Y-80829758D01*
X127966962Y-80832380D01*
X127972223Y-80835533D01*
X127977150Y-80839187D01*
X127981694Y-80843306D01*
X127985813Y-80847850D01*
X127989467Y-80852777D01*
X127992620Y-80858038D01*
X127995242Y-80863582D01*
X127997309Y-80869357D01*
X127998799Y-80875307D01*
X127999699Y-80881374D01*
X128000000Y-80887500D01*
X128000000Y-81012500D01*
X127999699Y-81018626D01*
X127998799Y-81024693D01*
X127997309Y-81030643D01*
X127995242Y-81036418D01*
X127992620Y-81041962D01*
X127989467Y-81047223D01*
X127985813Y-81052150D01*
X127981694Y-81056694D01*
X127977150Y-81060813D01*
X127972223Y-81064467D01*
X127966962Y-81067620D01*
X127961418Y-81070242D01*
X127955643Y-81072309D01*
X127949693Y-81073799D01*
X127943626Y-81074699D01*
X127937500Y-81075000D01*
X127462500Y-81075000D01*
X127456374Y-81074699D01*
X127450307Y-81073799D01*
X127444357Y-81072309D01*
X127438582Y-81070242D01*
X127433038Y-81067620D01*
X127427777Y-81064467D01*
X127422850Y-81060813D01*
X127418306Y-81056694D01*
X127414187Y-81052150D01*
X127410533Y-81047223D01*
X127407380Y-81041962D01*
X127404758Y-81036418D01*
X127402691Y-81030643D01*
X127401201Y-81024693D01*
X127400301Y-81018626D01*
X127400000Y-81012500D01*
X127400000Y-80887500D01*
X127400301Y-80881374D01*
X127401201Y-80875307D01*
X127402691Y-80869357D01*
X127404758Y-80863582D01*
X127407380Y-80858038D01*
X127410533Y-80852777D01*
X127414187Y-80847850D01*
X127418306Y-80843306D01*
X127422850Y-80839187D01*
X127427777Y-80835533D01*
X127433038Y-80832380D01*
X127438582Y-80829758D01*
X127444357Y-80827691D01*
X127450307Y-80826201D01*
X127456374Y-80825301D01*
X127462500Y-80825000D01*
X127937500Y-80825000D01*
X127943626Y-80825301D01*
X127943626Y-80825301D01*
G37*
D15*
X127700000Y-80950000D03*
D14*
G36*
X127943626Y-81825301D02*
X127949693Y-81826201D01*
X127955643Y-81827691D01*
X127961418Y-81829758D01*
X127966962Y-81832380D01*
X127972223Y-81835533D01*
X127977150Y-81839187D01*
X127981694Y-81843306D01*
X127985813Y-81847850D01*
X127989467Y-81852777D01*
X127992620Y-81858038D01*
X127995242Y-81863582D01*
X127997309Y-81869357D01*
X127998799Y-81875307D01*
X127999699Y-81881374D01*
X128000000Y-81887500D01*
X128000000Y-82012500D01*
X127999699Y-82018626D01*
X127998799Y-82024693D01*
X127997309Y-82030643D01*
X127995242Y-82036418D01*
X127992620Y-82041962D01*
X127989467Y-82047223D01*
X127985813Y-82052150D01*
X127981694Y-82056694D01*
X127977150Y-82060813D01*
X127972223Y-82064467D01*
X127966962Y-82067620D01*
X127961418Y-82070242D01*
X127955643Y-82072309D01*
X127949693Y-82073799D01*
X127943626Y-82074699D01*
X127937500Y-82075000D01*
X127462500Y-82075000D01*
X127456374Y-82074699D01*
X127450307Y-82073799D01*
X127444357Y-82072309D01*
X127438582Y-82070242D01*
X127433038Y-82067620D01*
X127427777Y-82064467D01*
X127422850Y-82060813D01*
X127418306Y-82056694D01*
X127414187Y-82052150D01*
X127410533Y-82047223D01*
X127407380Y-82041962D01*
X127404758Y-82036418D01*
X127402691Y-82030643D01*
X127401201Y-82024693D01*
X127400301Y-82018626D01*
X127400000Y-82012500D01*
X127400000Y-81887500D01*
X127400301Y-81881374D01*
X127401201Y-81875307D01*
X127402691Y-81869357D01*
X127404758Y-81863582D01*
X127407380Y-81858038D01*
X127410533Y-81852777D01*
X127414187Y-81847850D01*
X127418306Y-81843306D01*
X127422850Y-81839187D01*
X127427777Y-81835533D01*
X127433038Y-81832380D01*
X127438582Y-81829758D01*
X127444357Y-81827691D01*
X127450307Y-81826201D01*
X127456374Y-81825301D01*
X127462500Y-81825000D01*
X127937500Y-81825000D01*
X127943626Y-81825301D01*
X127943626Y-81825301D01*
G37*
D15*
X127700000Y-81950000D03*
D14*
G36*
X127943626Y-81325301D02*
X127949693Y-81326201D01*
X127955643Y-81327691D01*
X127961418Y-81329758D01*
X127966962Y-81332380D01*
X127972223Y-81335533D01*
X127977150Y-81339187D01*
X127981694Y-81343306D01*
X127985813Y-81347850D01*
X127989467Y-81352777D01*
X127992620Y-81358038D01*
X127995242Y-81363582D01*
X127997309Y-81369357D01*
X127998799Y-81375307D01*
X127999699Y-81381374D01*
X128000000Y-81387500D01*
X128000000Y-81512500D01*
X127999699Y-81518626D01*
X127998799Y-81524693D01*
X127997309Y-81530643D01*
X127995242Y-81536418D01*
X127992620Y-81541962D01*
X127989467Y-81547223D01*
X127985813Y-81552150D01*
X127981694Y-81556694D01*
X127977150Y-81560813D01*
X127972223Y-81564467D01*
X127966962Y-81567620D01*
X127961418Y-81570242D01*
X127955643Y-81572309D01*
X127949693Y-81573799D01*
X127943626Y-81574699D01*
X127937500Y-81575000D01*
X127462500Y-81575000D01*
X127456374Y-81574699D01*
X127450307Y-81573799D01*
X127444357Y-81572309D01*
X127438582Y-81570242D01*
X127433038Y-81567620D01*
X127427777Y-81564467D01*
X127422850Y-81560813D01*
X127418306Y-81556694D01*
X127414187Y-81552150D01*
X127410533Y-81547223D01*
X127407380Y-81541962D01*
X127404758Y-81536418D01*
X127402691Y-81530643D01*
X127401201Y-81524693D01*
X127400301Y-81518626D01*
X127400000Y-81512500D01*
X127400000Y-81387500D01*
X127400301Y-81381374D01*
X127401201Y-81375307D01*
X127402691Y-81369357D01*
X127404758Y-81363582D01*
X127407380Y-81358038D01*
X127410533Y-81352777D01*
X127414187Y-81347850D01*
X127418306Y-81343306D01*
X127422850Y-81339187D01*
X127427777Y-81335533D01*
X127433038Y-81332380D01*
X127438582Y-81329758D01*
X127444357Y-81327691D01*
X127450307Y-81326201D01*
X127456374Y-81325301D01*
X127462500Y-81325000D01*
X127937500Y-81325000D01*
X127943626Y-81325301D01*
X127943626Y-81325301D01*
G37*
D15*
X127700000Y-81450000D03*
G04 #@! TD*
D16*
G04 #@! TO.C,U24*
X149929738Y-136708175D03*
X149929738Y-136208175D03*
X149929738Y-135708175D03*
X149929738Y-135208175D03*
X149929738Y-134708175D03*
X149929738Y-134208175D03*
X149929738Y-133708175D03*
X149929738Y-133208175D03*
D17*
X149279738Y-132558175D03*
X148779738Y-132558175D03*
X148279738Y-132558175D03*
X147779738Y-132558175D03*
X147279738Y-132558175D03*
X146779738Y-132558175D03*
X146279738Y-132558175D03*
X145779738Y-132558175D03*
D16*
X145129738Y-133208175D03*
X145129738Y-133708175D03*
X145129738Y-134208175D03*
X145129738Y-134708175D03*
X145129738Y-135208175D03*
X145129738Y-135708175D03*
X145129738Y-136208175D03*
X145129738Y-136708175D03*
D17*
X145779738Y-137358175D03*
X146279738Y-137358175D03*
X146779738Y-137358175D03*
X147279738Y-137358175D03*
X147779738Y-137358175D03*
X148279738Y-137358175D03*
X148779738Y-137358175D03*
X149279738Y-137358175D03*
D18*
X148101238Y-135516975D03*
X146945538Y-135529675D03*
X148126638Y-134373975D03*
X146958238Y-134399375D03*
G04 #@! TD*
D17*
G04 #@! TO.C,U23*
X146750000Y-44000000D03*
X147250000Y-44000000D03*
X147750000Y-44000000D03*
X148250000Y-44000000D03*
X148750000Y-44000000D03*
X149250000Y-44000000D03*
X149750000Y-44000000D03*
X150250000Y-44000000D03*
D16*
X150900000Y-43350000D03*
X150900000Y-42850000D03*
X150900000Y-42350000D03*
X150900000Y-41850000D03*
X150900000Y-41350000D03*
X150900000Y-40850000D03*
X150900000Y-40350000D03*
X150900000Y-39850000D03*
D17*
X150250000Y-39200000D03*
X149750000Y-39200000D03*
X149250000Y-39200000D03*
X148750000Y-39200000D03*
X148250000Y-39200000D03*
X147750000Y-39200000D03*
X147250000Y-39200000D03*
X146750000Y-39200000D03*
D16*
X146100000Y-39850000D03*
X146100000Y-40350000D03*
X146100000Y-40850000D03*
X146100000Y-41350000D03*
X146100000Y-41850000D03*
X146100000Y-42350000D03*
X146100000Y-42850000D03*
X146100000Y-43350000D03*
D18*
X147941200Y-42171500D03*
X147928500Y-41015800D03*
X149084200Y-42196900D03*
X149058800Y-41028500D03*
G04 #@! TD*
D19*
G04 #@! TO.C,C152*
X130945000Y-102005000D03*
X130945000Y-100095000D03*
G04 #@! TD*
D20*
G04 #@! TO.C,U14*
X101997500Y-96675000D03*
X101997500Y-98225000D03*
X103202500Y-96675000D03*
X103202500Y-98225000D03*
D21*
X105380000Y-95545000D03*
X105380000Y-96815000D03*
X105380000Y-98085000D03*
X105380000Y-99355000D03*
X99820000Y-99355000D03*
X99820000Y-98085000D03*
X99820000Y-96815000D03*
X99820000Y-95545000D03*
G04 #@! TD*
D22*
G04 #@! TO.C,Q3*
X102700000Y-55099848D03*
X102700000Y-57099848D03*
X102700000Y-53099848D03*
X102700000Y-51099848D03*
D23*
X97400000Y-52199848D03*
X97400000Y-55999848D03*
D22*
X99950000Y-50449848D03*
X99950000Y-57749848D03*
D24*
X95350000Y-50699848D03*
X95350000Y-57499848D03*
G04 #@! TD*
D22*
G04 #@! TO.C,Q6*
X102700000Y-114400000D03*
X102700000Y-116400000D03*
X102700000Y-112400000D03*
X102700000Y-110400000D03*
D23*
X97400000Y-111500000D03*
X97400000Y-115300000D03*
D22*
X99950000Y-109750000D03*
X99950000Y-117050000D03*
D24*
X95350000Y-110000000D03*
X95350000Y-116800000D03*
G04 #@! TD*
D22*
G04 #@! TO.C,Q1*
X102700000Y-65250000D03*
X102700000Y-67250000D03*
X102700000Y-63250000D03*
X102700000Y-61250000D03*
D23*
X97400000Y-62350000D03*
X97400000Y-66150000D03*
D22*
X99950000Y-60600000D03*
X99950000Y-67900000D03*
D24*
X95350000Y-60850000D03*
X95350000Y-67650000D03*
G04 #@! TD*
D22*
G04 #@! TO.C,Q2*
X102700000Y-135000000D03*
X102700000Y-137000000D03*
X102700000Y-133000000D03*
X102700000Y-131000000D03*
D23*
X97400000Y-132100000D03*
X97400000Y-135900000D03*
D22*
X99950000Y-130350000D03*
X99950000Y-137650000D03*
D24*
X95350000Y-130600000D03*
X95350000Y-137400000D03*
G04 #@! TD*
D22*
G04 #@! TO.C,Q4*
X102700000Y-124750000D03*
X102700000Y-126750000D03*
X102700000Y-122750000D03*
X102700000Y-120750000D03*
D23*
X97400000Y-121850000D03*
X97400000Y-125650000D03*
D22*
X99950000Y-120100000D03*
X99950000Y-127400000D03*
D24*
X95350000Y-120350000D03*
X95350000Y-127150000D03*
G04 #@! TD*
D22*
G04 #@! TO.C,Q5*
X102700000Y-44850000D03*
X102700000Y-46850000D03*
X102700000Y-42850000D03*
X102700000Y-40850000D03*
D23*
X97400000Y-41950000D03*
X97400000Y-45750000D03*
D22*
X99950000Y-40200000D03*
X99950000Y-47500000D03*
D24*
X95350000Y-40450000D03*
X95350000Y-47250000D03*
G04 #@! TD*
D25*
G04 #@! TO.C,R150*
X110850000Y-53750000D03*
X106650000Y-53750000D03*
G04 #@! TD*
G04 #@! TO.C,R114*
X106650000Y-64000000D03*
X110850000Y-64000000D03*
G04 #@! TD*
G04 #@! TO.C,R115*
X106650000Y-134500000D03*
X110850000Y-134500000D03*
G04 #@! TD*
G04 #@! TO.C,R151*
X110850000Y-124000000D03*
X106650000Y-124000000D03*
G04 #@! TD*
D26*
G04 #@! TO.C,C51*
X125132500Y-100250000D03*
X124357500Y-100250000D03*
G04 #@! TD*
G04 #@! TO.C,R218*
X193620257Y-40888795D03*
X194395257Y-40888795D03*
G04 #@! TD*
G04 #@! TO.C,R214*
X205120257Y-44838795D03*
X205895257Y-44838795D03*
G04 #@! TD*
G04 #@! TO.C,R215*
X222045257Y-42738795D03*
X221270257Y-42738795D03*
G04 #@! TD*
G04 #@! TO.C,R216*
X172045257Y-43588795D03*
X171270257Y-43588795D03*
G04 #@! TD*
G04 #@! TO.C,R217*
X172087500Y-39600000D03*
X171312500Y-39600000D03*
G04 #@! TD*
G04 #@! TO.C,R231*
X205120257Y-39638795D03*
X205895257Y-39638795D03*
G04 #@! TD*
G04 #@! TO.C,R220*
X160495257Y-41388795D03*
X159720257Y-41388795D03*
G04 #@! TD*
G04 #@! TO.C,R221*
X159720257Y-43788795D03*
X160495257Y-43788795D03*
G04 #@! TD*
G04 #@! TO.C,R222*
X205895257Y-43838795D03*
X205120257Y-43838795D03*
G04 #@! TD*
G04 #@! TO.C,R223*
X205895257Y-40638795D03*
X205120257Y-40638795D03*
G04 #@! TD*
G04 #@! TO.C,R224*
X212445257Y-42888795D03*
X211670257Y-42888795D03*
G04 #@! TD*
G04 #@! TO.C,R225*
X171270257Y-44588795D03*
X172045257Y-44588795D03*
G04 #@! TD*
G04 #@! TO.C,R226*
X171312500Y-37600000D03*
X172087500Y-37600000D03*
G04 #@! TD*
G04 #@! TO.C,R227*
X194395257Y-39888795D03*
X193620257Y-39888795D03*
G04 #@! TD*
G04 #@! TO.C,R228*
X194345257Y-46988795D03*
X193570257Y-46988795D03*
G04 #@! TD*
G04 #@! TO.C,R229*
X159720257Y-40388795D03*
X160495257Y-40388795D03*
G04 #@! TD*
G04 #@! TO.C,R219*
X194337500Y-44700000D03*
X193562500Y-44700000D03*
G04 #@! TD*
G04 #@! TO.C,R230*
X160487500Y-44788795D03*
X159712500Y-44788795D03*
G04 #@! TD*
D27*
G04 #@! TO.C,R236*
X145750000Y-84462500D03*
X145750000Y-85237500D03*
G04 #@! TD*
G04 #@! TO.C,R237*
X145500000Y-95287500D03*
X145500000Y-94512500D03*
G04 #@! TD*
G04 #@! TO.C,R238*
X139500000Y-95862500D03*
X139500000Y-96637500D03*
G04 #@! TD*
D26*
G04 #@! TO.C,R126*
X227612500Y-67250000D03*
X228387500Y-67250000D03*
G04 #@! TD*
G04 #@! TO.C,R125*
X228387500Y-61000000D03*
X227612500Y-61000000D03*
G04 #@! TD*
G04 #@! TO.C,R124*
X227612500Y-69250000D03*
X228387500Y-69250000D03*
G04 #@! TD*
G04 #@! TO.C,R123*
X228437500Y-63100000D03*
X227662500Y-63100000D03*
G04 #@! TD*
G04 #@! TO.C,R128*
X227612500Y-72250000D03*
X228387500Y-72250000D03*
G04 #@! TD*
G04 #@! TO.C,R127*
X228387500Y-66250000D03*
X227612500Y-66250000D03*
G04 #@! TD*
G04 #@! TO.C,R146*
X227612500Y-70250000D03*
X228387500Y-70250000D03*
G04 #@! TD*
G04 #@! TO.C,R145*
X228437500Y-64100000D03*
X227662500Y-64100000D03*
G04 #@! TD*
D28*
G04 #@! TO.C,Y1*
X163320000Y-73090000D03*
X163320000Y-69090000D03*
X165720000Y-69090000D03*
X165720000Y-73090000D03*
G04 #@! TD*
D13*
G04 #@! TO.C,Y3*
X222100000Y-56500000D03*
X222100000Y-58700000D03*
X220500000Y-58700000D03*
X220500000Y-56500000D03*
G04 #@! TD*
D29*
G04 #@! TO.C,F1*
X116000000Y-78500000D03*
X116000000Y-84900000D03*
G04 #@! TD*
D30*
G04 #@! TO.C,U27*
X146100000Y-75000000D03*
X146100000Y-75950000D03*
X146100000Y-74050000D03*
X148400000Y-74050000D03*
X148400000Y-75000000D03*
X148400000Y-75950000D03*
G04 #@! TD*
G04 #@! TO.C,U18*
X251899726Y-94424480D03*
X251899726Y-93474480D03*
X251899726Y-95374480D03*
X249599726Y-95374480D03*
X249599726Y-94424480D03*
X249599726Y-93474480D03*
G04 #@! TD*
G04 #@! TO.C,U28*
X146100000Y-78750000D03*
X146100000Y-79700000D03*
X146100000Y-77800000D03*
X148400000Y-77800000D03*
X148400000Y-78750000D03*
X148400000Y-79700000D03*
G04 #@! TD*
D31*
G04 #@! TO.C,S1*
X180700000Y-70425000D03*
X177600000Y-70425000D03*
X180700000Y-67675000D03*
X177600000Y-67675000D03*
G04 #@! TD*
D32*
G04 #@! TO.C,J1*
X256824727Y-97089479D03*
X256824727Y-90689479D03*
D33*
X259524727Y-95089479D03*
D34*
X256849727Y-93889479D03*
X256849727Y-93239479D03*
X256849727Y-92589479D03*
X256849727Y-95189479D03*
X256849727Y-94539479D03*
D33*
X259524727Y-92689479D03*
G04 #@! TD*
D35*
G04 #@! TO.C,C169*
X122600000Y-79000000D03*
X122600000Y-84400000D03*
G04 #@! TD*
D26*
G04 #@! TO.C,C142*
X228387500Y-74250000D03*
X227612500Y-74250000D03*
G04 #@! TD*
G04 #@! TO.C,C141*
X227612500Y-59000000D03*
X228387500Y-59000000D03*
G04 #@! TD*
G04 #@! TO.C,C166*
X107987500Y-100050000D03*
X107212500Y-100050000D03*
G04 #@! TD*
G04 #@! TO.C,C82*
X132787500Y-113700000D03*
X132012500Y-113700000D03*
G04 #@! TD*
D27*
G04 #@! TO.C,C111*
X218000000Y-58412500D03*
X218000000Y-59187500D03*
G04 #@! TD*
G04 #@! TO.C,C102*
X219800000Y-74737500D03*
X219800000Y-73962500D03*
G04 #@! TD*
G04 #@! TO.C,C99*
X214800000Y-74737500D03*
X214800000Y-73962500D03*
G04 #@! TD*
G04 #@! TO.C,C168*
X119250000Y-91500000D03*
X119250000Y-90725000D03*
G04 #@! TD*
D26*
G04 #@! TO.C,C171*
X125087500Y-92650000D03*
X124312500Y-92650000D03*
G04 #@! TD*
D27*
G04 #@! TO.C,C93*
X213800000Y-58512500D03*
X213800000Y-59287500D03*
G04 #@! TD*
D26*
G04 #@! TO.C,C96*
X208412500Y-70350000D03*
X209187500Y-70350000D03*
G04 #@! TD*
D36*
G04 #@! TO.C,C45*
X130055000Y-78600000D03*
X128145000Y-78600000D03*
G04 #@! TD*
D37*
G04 #@! TO.C,C167*
X95495000Y-93100000D03*
X98505000Y-93100000D03*
G04 #@! TD*
G04 #@! TO.C,C165*
X95495000Y-89750000D03*
X98505000Y-89750000D03*
G04 #@! TD*
D38*
G04 #@! TO.C,D30*
X134345000Y-102000000D03*
X134345000Y-97700000D03*
G04 #@! TD*
G04 #@! TO.C,D16*
X134300000Y-94400000D03*
X134300000Y-90100000D03*
G04 #@! TD*
D39*
G04 #@! TO.C,D15*
X149850000Y-45750000D03*
X153150000Y-45750000D03*
G04 #@! TD*
D40*
G04 #@! TO.C,D33*
X151929738Y-133708175D03*
X151929738Y-137008175D03*
G04 #@! TD*
D41*
G04 #@! TO.C,F2*
X121250000Y-87875000D03*
X121250000Y-89625000D03*
G04 #@! TD*
D42*
G04 #@! TO.C,U36*
X128845000Y-100100000D03*
X128845000Y-102000000D03*
X126645000Y-102000000D03*
X126645000Y-101050000D03*
X126645000Y-100100000D03*
G04 #@! TD*
D26*
G04 #@! TO.C,R59*
X133712500Y-82600000D03*
X134487500Y-82600000D03*
G04 #@! TD*
G04 #@! TO.C,R49*
X107987500Y-102050000D03*
X107212500Y-102050000D03*
G04 #@! TD*
G04 #@! TO.C,R48*
X107212500Y-101050000D03*
X107987500Y-101050000D03*
G04 #@! TD*
G04 #@! TO.C,R65*
X251137500Y-96750000D03*
X250362500Y-96750000D03*
G04 #@! TD*
G04 #@! TO.C,R210*
X181362500Y-93250000D03*
X182137500Y-93250000D03*
G04 #@! TD*
G04 #@! TO.C,R209*
X180387500Y-93250000D03*
X179612500Y-93250000D03*
G04 #@! TD*
G04 #@! TO.C,R211*
X181362500Y-100250000D03*
X182137500Y-100250000D03*
G04 #@! TD*
G04 #@! TO.C,R213*
X181362500Y-94250000D03*
X182137500Y-94250000D03*
G04 #@! TD*
G04 #@! TO.C,R212*
X181362500Y-96250000D03*
X182137500Y-96250000D03*
G04 #@! TD*
D41*
G04 #@! TO.C,R35*
X136100000Y-77525000D03*
X136100000Y-79275000D03*
G04 #@! TD*
D36*
G04 #@! TO.C,R66*
X137545000Y-94250000D03*
X139455000Y-94250000D03*
G04 #@! TD*
G04 #@! TO.C,R76*
X137545000Y-100050000D03*
X139455000Y-100050000D03*
G04 #@! TD*
D26*
G04 #@! TO.C,C154*
X102112500Y-70750000D03*
X102887500Y-70750000D03*
G04 #@! TD*
G04 #@! TO.C,C155*
X101362500Y-102250000D03*
X102137500Y-102250000D03*
G04 #@! TD*
D43*
G04 #@! TO.C,D31*
X253125000Y-89200000D03*
X254875000Y-89200000D03*
G04 #@! TD*
D26*
G04 #@! TO.C,R202*
X100387500Y-103250000D03*
X99612500Y-103250000D03*
G04 #@! TD*
G04 #@! TO.C,R198*
X250087500Y-89100000D03*
X249312500Y-89100000D03*
G04 #@! TD*
G04 #@! TO.C,R199*
X100462500Y-70750000D03*
X101237500Y-70750000D03*
G04 #@! TD*
G04 #@! TO.C,R200*
X101237500Y-71750000D03*
X100462500Y-71750000D03*
G04 #@! TD*
G04 #@! TO.C,R201*
X99612500Y-102250000D03*
X100387500Y-102250000D03*
G04 #@! TD*
D44*
G04 #@! TO.C,D28*
X84350000Y-90750000D03*
X91150000Y-90750000D03*
G04 #@! TD*
D40*
G04 #@! TO.C,D27*
X76000000Y-84150000D03*
X76000000Y-80850000D03*
G04 #@! TD*
D45*
G04 #@! TO.C,Q8*
X64900000Y-83550000D03*
X64900000Y-78950000D03*
X64900000Y-81250000D03*
D46*
X58600000Y-81250000D03*
G04 #@! TD*
D47*
G04 #@! TO.C,Q7*
X72000000Y-83000000D03*
X74000000Y-82050000D03*
X74000000Y-83950000D03*
G04 #@! TD*
D48*
G04 #@! TO.C,D29*
X86850000Y-84275000D03*
X91700000Y-78725000D03*
X86850000Y-78725000D03*
X91700000Y-84275000D03*
D49*
X80125000Y-84040000D03*
X80125000Y-78960000D03*
G04 #@! TD*
D26*
G04 #@! TO.C,R195*
X76637500Y-79000000D03*
X75862500Y-79000000D03*
G04 #@! TD*
D27*
G04 #@! TO.C,R196*
X67950000Y-83787500D03*
X67950000Y-83012500D03*
G04 #@! TD*
G04 #@! TO.C,R197*
X66950000Y-83787500D03*
X66950000Y-83012500D03*
G04 #@! TD*
D26*
G04 #@! TO.C,C84*
X134000000Y-54500000D03*
X133225000Y-54500000D03*
G04 #@! TD*
D50*
G04 #@! TO.C,U13*
X185795000Y-112950000D03*
X187065000Y-112950000D03*
X188335000Y-112950000D03*
X189605000Y-112950000D03*
X190875000Y-112950000D03*
X192145000Y-112950000D03*
X193415000Y-112950000D03*
X194685000Y-112950000D03*
X195955000Y-112950000D03*
X197225000Y-112950000D03*
X198495000Y-112950000D03*
X199765000Y-112950000D03*
X201035000Y-112950000D03*
X202305000Y-112950000D03*
X202305000Y-122350000D03*
X201035000Y-122350000D03*
X199765000Y-122350000D03*
X198495000Y-122350000D03*
X197225000Y-122350000D03*
X195955000Y-122350000D03*
X194685000Y-122350000D03*
X193415000Y-122350000D03*
X192145000Y-122350000D03*
X190875000Y-122350000D03*
X189605000Y-122350000D03*
X188335000Y-122350000D03*
X187065000Y-122350000D03*
X185795000Y-122350000D03*
G04 #@! TD*
G04 #@! TO.C,U5*
X165945000Y-112950000D03*
X167215000Y-112950000D03*
X168485000Y-112950000D03*
X169755000Y-112950000D03*
X171025000Y-112950000D03*
X172295000Y-112950000D03*
X173565000Y-112950000D03*
X174835000Y-112950000D03*
X176105000Y-112950000D03*
X177375000Y-112950000D03*
X178645000Y-112950000D03*
X179915000Y-112950000D03*
X181185000Y-112950000D03*
X182455000Y-112950000D03*
X182455000Y-122350000D03*
X181185000Y-122350000D03*
X179915000Y-122350000D03*
X178645000Y-122350000D03*
X177375000Y-122350000D03*
X176105000Y-122350000D03*
X174835000Y-122350000D03*
X173565000Y-122350000D03*
X172295000Y-122350000D03*
X171025000Y-122350000D03*
X169755000Y-122350000D03*
X168485000Y-122350000D03*
X167215000Y-122350000D03*
X165945000Y-122350000D03*
G04 #@! TD*
D51*
G04 #@! TO.C,U32*
X127148400Y-116460000D03*
X125945000Y-116460000D03*
X124741600Y-116460000D03*
X127148400Y-117730000D03*
X125945000Y-117730000D03*
X124741600Y-117730000D03*
X127148400Y-119000000D03*
X125945000Y-119000000D03*
X124741600Y-119000000D03*
X127148400Y-120270000D03*
X125945000Y-120270000D03*
X124741600Y-120270000D03*
X124741600Y-121540000D03*
X125945000Y-121540000D03*
X127148400Y-121540000D03*
D52*
X122195000Y-125750000D03*
X122195000Y-125250000D03*
X122195000Y-124750000D03*
X122195000Y-124250000D03*
X122195000Y-123750000D03*
X122195000Y-123250000D03*
X122195000Y-122750000D03*
X122195000Y-122250000D03*
X122195000Y-121750000D03*
X122195000Y-121250000D03*
X122195000Y-120750000D03*
X122195000Y-120250000D03*
X122195000Y-119750000D03*
X122195000Y-119250000D03*
X122195000Y-118750000D03*
X122195000Y-118250000D03*
X122195000Y-117750000D03*
X122195000Y-117250000D03*
X122195000Y-116750000D03*
X122195000Y-116250000D03*
X122195000Y-115750000D03*
X122195000Y-115250000D03*
X122195000Y-114750000D03*
X122195000Y-114250000D03*
X122195000Y-113750000D03*
X122195000Y-113250000D03*
X122195000Y-112750000D03*
X122195000Y-112250000D03*
X129695000Y-112250000D03*
X129695000Y-112750000D03*
X129695000Y-113250000D03*
X129695000Y-113750000D03*
X129695000Y-114250000D03*
X129695000Y-114750000D03*
X129695000Y-115250000D03*
X129695000Y-115750000D03*
X129695000Y-116250000D03*
X129695000Y-116750000D03*
X129695000Y-117250000D03*
X129695000Y-117750000D03*
X129695000Y-118250000D03*
X129695000Y-118750000D03*
X129695000Y-119250000D03*
X129695000Y-119750000D03*
X129695000Y-120250000D03*
X129695000Y-120750000D03*
X129695000Y-121250000D03*
X129695000Y-121750000D03*
X129695000Y-122250000D03*
X129695000Y-122750000D03*
X129695000Y-123250000D03*
X129695000Y-123750000D03*
X129695000Y-124250000D03*
X129695000Y-124750000D03*
X129695000Y-125250000D03*
X129695000Y-125750000D03*
G04 #@! TD*
D51*
G04 #@! TO.C,U31*
X127148400Y-50074600D03*
X125945000Y-50074600D03*
X124741600Y-50074600D03*
X127148400Y-51344600D03*
X125945000Y-51344600D03*
X124741600Y-51344600D03*
X127148400Y-52614600D03*
X125945000Y-52614600D03*
X124741600Y-52614600D03*
X127148400Y-53884600D03*
X125945000Y-53884600D03*
X124741600Y-53884600D03*
X124741600Y-55154600D03*
X125945000Y-55154600D03*
X127148400Y-55154600D03*
D52*
X122195000Y-59364600D03*
X122195000Y-58864600D03*
X122195000Y-58364600D03*
X122195000Y-57864600D03*
X122195000Y-57364600D03*
X122195000Y-56864600D03*
X122195000Y-56364600D03*
X122195000Y-55864600D03*
X122195000Y-55364600D03*
X122195000Y-54864600D03*
X122195000Y-54364600D03*
X122195000Y-53864600D03*
X122195000Y-53364600D03*
X122195000Y-52864600D03*
X122195000Y-52364600D03*
X122195000Y-51864600D03*
X122195000Y-51364600D03*
X122195000Y-50864600D03*
X122195000Y-50364600D03*
X122195000Y-49864600D03*
X122195000Y-49364600D03*
X122195000Y-48864600D03*
X122195000Y-48364600D03*
X122195000Y-47864600D03*
X122195000Y-47364600D03*
X122195000Y-46864600D03*
X122195000Y-46364600D03*
X122195000Y-45864600D03*
X129695000Y-45864600D03*
X129695000Y-46364600D03*
X129695000Y-46864600D03*
X129695000Y-47364600D03*
X129695000Y-47864600D03*
X129695000Y-48364600D03*
X129695000Y-48864600D03*
X129695000Y-49364600D03*
X129695000Y-49864600D03*
X129695000Y-50364600D03*
X129695000Y-50864600D03*
X129695000Y-51364600D03*
X129695000Y-51864600D03*
X129695000Y-52364600D03*
X129695000Y-52864600D03*
X129695000Y-53364600D03*
X129695000Y-53864600D03*
X129695000Y-54364600D03*
X129695000Y-54864600D03*
X129695000Y-55364600D03*
X129695000Y-55864600D03*
X129695000Y-56364600D03*
X129695000Y-56864600D03*
X129695000Y-57364600D03*
X129695000Y-57864600D03*
X129695000Y-58364600D03*
X129695000Y-58864600D03*
X129695000Y-59364600D03*
G04 #@! TD*
D53*
G04 #@! TO.C,L1*
X111050000Y-81250000D03*
X101000000Y-81250000D03*
G04 #@! TD*
D35*
G04 #@! TO.C,C38*
X115250000Y-95450000D03*
X115250000Y-90050000D03*
G04 #@! TD*
D27*
G04 #@! TO.C,C2*
X162010000Y-68952500D03*
X162010000Y-69727500D03*
G04 #@! TD*
G04 #@! TO.C,C1*
X167100000Y-73507500D03*
X167100000Y-72732500D03*
G04 #@! TD*
D26*
G04 #@! TO.C,C24*
X246712500Y-120400000D03*
X247487500Y-120400000D03*
G04 #@! TD*
G04 #@! TO.C,C21*
X197387500Y-124250000D03*
X196612500Y-124250000D03*
G04 #@! TD*
D27*
G04 #@! TO.C,C22*
X237900000Y-104787500D03*
X237900000Y-104012500D03*
G04 #@! TD*
G04 #@! TO.C,C20*
X247750000Y-129387500D03*
X247750000Y-128612500D03*
G04 #@! TD*
D26*
G04 #@! TO.C,C19*
X107987500Y-99050000D03*
X107212500Y-99050000D03*
G04 #@! TD*
G04 #@! TO.C,C18*
X107987500Y-96050000D03*
X107212500Y-96050000D03*
G04 #@! TD*
D27*
G04 #@! TO.C,C14*
X243250000Y-128612500D03*
X243250000Y-129387500D03*
G04 #@! TD*
G04 #@! TO.C,C13*
X153700000Y-70475000D03*
X153700000Y-71250000D03*
G04 #@! TD*
D26*
G04 #@! TO.C,C12*
X195387500Y-42138795D03*
X194612500Y-42138795D03*
G04 #@! TD*
G04 #@! TO.C,C23*
X246699472Y-106375919D03*
X247474472Y-106375919D03*
G04 #@! TD*
D27*
G04 #@! TO.C,C25*
X237900000Y-111587500D03*
X237900000Y-110812500D03*
G04 #@! TD*
D26*
G04 #@! TO.C,C26*
X246712500Y-113400000D03*
X247487500Y-113400000D03*
G04 #@! TD*
D27*
G04 #@! TO.C,C27*
X241500000Y-123612500D03*
X241500000Y-124387500D03*
G04 #@! TD*
D26*
G04 #@! TO.C,C11*
X170212500Y-42038795D03*
X170987500Y-42038795D03*
G04 #@! TD*
D27*
G04 #@! TO.C,C16*
X158200000Y-70612500D03*
X158200000Y-71387500D03*
G04 #@! TD*
G04 #@! TO.C,C33*
X237900000Y-118012500D03*
X237900000Y-118787500D03*
G04 #@! TD*
G04 #@! TO.C,C36*
X235900000Y-45112500D03*
X235900000Y-45887500D03*
G04 #@! TD*
G04 #@! TO.C,C28*
X174500000Y-100887500D03*
X174500000Y-100112500D03*
G04 #@! TD*
G04 #@! TO.C,C46*
X126600000Y-81887500D03*
X126600000Y-81112500D03*
G04 #@! TD*
D26*
G04 #@! TO.C,C10*
X180732757Y-42738795D03*
X179957757Y-42738795D03*
G04 #@! TD*
G04 #@! TO.C,C137*
X229412500Y-64100000D03*
X230187500Y-64100000D03*
G04 #@! TD*
G04 #@! TO.C,C138*
X230137500Y-70250000D03*
X229362500Y-70250000D03*
G04 #@! TD*
D27*
G04 #@! TO.C,C59*
X147800000Y-36662500D03*
X147800000Y-37437500D03*
G04 #@! TD*
D26*
G04 #@! TO.C,C60*
X142942238Y-135358175D03*
X143717238Y-135358175D03*
G04 #@! TD*
G04 #@! TO.C,C61*
X143912500Y-40850000D03*
X144687500Y-40850000D03*
G04 #@! TD*
D27*
G04 #@! TO.C,C62*
X147250000Y-139887500D03*
X147250000Y-139112500D03*
G04 #@! TD*
D26*
G04 #@! TO.C,C64*
X144687500Y-43250000D03*
X143912500Y-43250000D03*
G04 #@! TD*
G04 #@! TO.C,C65*
X152300000Y-41950000D03*
X153075000Y-41950000D03*
G04 #@! TD*
G04 #@! TO.C,C132*
X230137500Y-72250000D03*
X229362500Y-72250000D03*
G04 #@! TD*
D27*
G04 #@! TO.C,C67*
X148750000Y-139112500D03*
X148750000Y-139887500D03*
G04 #@! TD*
G04 #@! TO.C,C68*
X148727841Y-131213961D03*
X148727841Y-130438961D03*
G04 #@! TD*
G04 #@! TO.C,C71*
X223500000Y-58687500D03*
X223500000Y-57912500D03*
G04 #@! TD*
G04 #@! TO.C,C72*
X219050000Y-56737500D03*
X219050000Y-55962500D03*
G04 #@! TD*
G04 #@! TO.C,C69*
X146250000Y-139112500D03*
X146250000Y-139887500D03*
G04 #@! TD*
G04 #@! TO.C,C17*
X244742243Y-36298705D03*
X244742243Y-35523705D03*
G04 #@! TD*
G04 #@! TO.C,C66*
X145500000Y-37437500D03*
X145500000Y-36662500D03*
G04 #@! TD*
G04 #@! TO.C,C8*
X165500000Y-130187500D03*
X165500000Y-129412500D03*
G04 #@! TD*
D26*
G04 #@! TO.C,C7*
X221270257Y-43838795D03*
X222045257Y-43838795D03*
G04 #@! TD*
D27*
G04 #@! TO.C,C30*
X100000000Y-94137500D03*
X100000000Y-93362500D03*
G04 #@! TD*
D26*
G04 #@! TO.C,C31*
X185787500Y-85000000D03*
X185012500Y-85000000D03*
G04 #@! TD*
G04 #@! TO.C,C98*
X132062500Y-133400000D03*
X132837500Y-133400000D03*
G04 #@! TD*
G04 #@! TO.C,C87*
X132537500Y-45100000D03*
X131762500Y-45100000D03*
G04 #@! TD*
G04 #@! TO.C,C88*
X132787500Y-110700000D03*
X132012500Y-110700000D03*
G04 #@! TD*
G04 #@! TO.C,C91*
X132537500Y-48100000D03*
X131762500Y-48100000D03*
G04 #@! TD*
G04 #@! TO.C,C92*
X132787500Y-115700000D03*
X132012500Y-115700000D03*
G04 #@! TD*
D27*
G04 #@! TO.C,C94*
X146750000Y-85237500D03*
X146750000Y-84462500D03*
G04 #@! TD*
D26*
G04 #@! TO.C,C97*
X132012500Y-67250000D03*
X132787500Y-67250000D03*
G04 #@! TD*
D27*
G04 #@! TO.C,C120*
X225500000Y-81712500D03*
X225500000Y-82487500D03*
G04 #@! TD*
D26*
G04 #@! TO.C,C125*
X229412500Y-63100000D03*
X230187500Y-63100000D03*
G04 #@! TD*
G04 #@! TO.C,C126*
X230137500Y-69250000D03*
X229362500Y-69250000D03*
G04 #@! TD*
G04 #@! TO.C,C127*
X229412500Y-61000000D03*
X230187500Y-61000000D03*
G04 #@! TD*
G04 #@! TO.C,C128*
X230137500Y-67250000D03*
X229362500Y-67250000D03*
G04 #@! TD*
G04 #@! TO.C,C9*
X176987500Y-124350000D03*
X176212500Y-124350000D03*
G04 #@! TD*
G04 #@! TO.C,C131*
X229362500Y-66250000D03*
X230137500Y-66250000D03*
G04 #@! TD*
D43*
G04 #@! TO.C,C100*
X117925000Y-42200000D03*
X119675000Y-42200000D03*
G04 #@! TD*
G04 #@! TO.C,C89*
X132375000Y-53250000D03*
X134125000Y-53250000D03*
G04 #@! TD*
G04 #@! TO.C,C101*
X118225000Y-109750000D03*
X119975000Y-109750000D03*
G04 #@! TD*
D41*
G04 #@! TO.C,C110*
X118250000Y-115625000D03*
X118250000Y-117375000D03*
G04 #@! TD*
D43*
G04 #@! TO.C,C115*
X117925000Y-47900000D03*
X119675000Y-47900000D03*
G04 #@! TD*
D41*
G04 #@! TO.C,C109*
X118250000Y-118875000D03*
X118250000Y-120625000D03*
G04 #@! TD*
G04 #@! TO.C,C108*
X118250000Y-122375000D03*
X118250000Y-124125000D03*
G04 #@! TD*
D43*
G04 #@! TO.C,C107*
X117925000Y-50500000D03*
X119675000Y-50500000D03*
G04 #@! TD*
G04 #@! TO.C,C105*
X117925000Y-56700000D03*
X119675000Y-56700000D03*
G04 #@! TD*
G04 #@! TO.C,C106*
X117925000Y-53100000D03*
X119675000Y-53100000D03*
G04 #@! TD*
G04 #@! TO.C,C135*
X117925000Y-45100000D03*
X119675000Y-45100000D03*
G04 #@! TD*
G04 #@! TO.C,C136*
X117875000Y-112250000D03*
X119625000Y-112250000D03*
G04 #@! TD*
G04 #@! TO.C,C116*
X117875000Y-113750000D03*
X119625000Y-113750000D03*
G04 #@! TD*
D19*
G04 #@! TO.C,C55*
X134300000Y-77445000D03*
X134300000Y-79355000D03*
G04 #@! TD*
G04 #@! TO.C,C58*
X130900000Y-94405000D03*
X130900000Y-92495000D03*
G04 #@! TD*
G04 #@! TO.C,C52*
X132300000Y-77445000D03*
X132300000Y-79355000D03*
G04 #@! TD*
D37*
G04 #@! TO.C,C104*
X130055000Y-109750000D03*
X127045000Y-109750000D03*
G04 #@! TD*
D54*
G04 #@! TO.C,C129*
X91750000Y-68255000D03*
X91750000Y-65245000D03*
G04 #@! TD*
D37*
G04 #@! TO.C,C130*
X90495000Y-126000000D03*
X93505000Y-126000000D03*
G04 #@! TD*
G04 #@! TO.C,C103*
X129655000Y-43600000D03*
X126645000Y-43600000D03*
G04 #@! TD*
G04 #@! TO.C,C133*
X90595000Y-55850000D03*
X93605000Y-55850000D03*
G04 #@! TD*
D54*
G04 #@! TO.C,C122*
X91500000Y-138255000D03*
X91500000Y-135245000D03*
G04 #@! TD*
G04 #@! TO.C,C134*
X91500000Y-117755000D03*
X91500000Y-114745000D03*
G04 #@! TD*
G04 #@! TO.C,C121*
X91750000Y-48005000D03*
X91750000Y-44995000D03*
G04 #@! TD*
D37*
G04 #@! TO.C,C113*
X125305000Y-109750000D03*
X122295000Y-109750000D03*
G04 #@! TD*
G04 #@! TO.C,C112*
X124905000Y-43600000D03*
X121895000Y-43600000D03*
G04 #@! TD*
D38*
G04 #@! TO.C,D14*
X121000000Y-97750000D03*
X121000000Y-93450000D03*
G04 #@! TD*
G04 #@! TO.C,D9*
X79800000Y-100650000D03*
X79800000Y-96350000D03*
G04 #@! TD*
D44*
G04 #@! TO.C,D12*
X102100000Y-91250000D03*
X108900000Y-91250000D03*
G04 #@! TD*
D41*
G04 #@! TO.C,FB1*
X158750000Y-75250000D03*
X158750000Y-73500000D03*
G04 #@! TD*
D43*
G04 #@! TO.C,FB5*
X225775000Y-71500000D03*
X224025000Y-71500000D03*
G04 #@! TD*
G04 #@! TO.C,FB4*
X225675000Y-61100000D03*
X223925000Y-61100000D03*
G04 #@! TD*
D55*
G04 #@! TO.C,L2*
X131885000Y-85200000D03*
X129515000Y-85200000D03*
G04 #@! TD*
D56*
G04 #@! TO.C,U11*
X244230217Y-125498638D03*
D57*
X242811467Y-126586138D03*
X242811467Y-123586138D03*
X243461467Y-126586138D03*
X244111467Y-126586138D03*
X244761467Y-126586138D03*
X245411467Y-126586138D03*
X246061467Y-126586138D03*
X246711467Y-126586138D03*
X243461467Y-123586138D03*
X244111467Y-123586138D03*
X244761467Y-123586138D03*
X245411467Y-123586138D03*
X246061467Y-123586138D03*
X246711467Y-123586138D03*
D56*
X243167717Y-125498638D03*
X245292717Y-125498638D03*
X246355217Y-125498638D03*
X243167717Y-124673638D03*
X246355217Y-124673638D03*
X244230217Y-124673638D03*
X245292717Y-124673638D03*
G04 #@! TD*
D52*
G04 #@! TO.C,U12*
X176400000Y-78950000D03*
X176400000Y-79450000D03*
X176400000Y-79950000D03*
X176400000Y-80450000D03*
X176400000Y-80950000D03*
X176400000Y-81450000D03*
X176400000Y-81950000D03*
X176400000Y-82450000D03*
X176400000Y-82950000D03*
X176400000Y-83450000D03*
X176400000Y-83950000D03*
X176400000Y-84450000D03*
X176400000Y-84950000D03*
X176400000Y-85450000D03*
X176400000Y-85950000D03*
X176400000Y-86450000D03*
X176400000Y-86950000D03*
X176400000Y-87450000D03*
X176400000Y-87950000D03*
X176400000Y-88450000D03*
X176400000Y-88950000D03*
X176400000Y-89450000D03*
X176400000Y-89950000D03*
X176400000Y-90450000D03*
X176400000Y-90950000D03*
X176400000Y-91450000D03*
X176400000Y-91950000D03*
X176400000Y-92450000D03*
X176400000Y-92950000D03*
X176400000Y-93450000D03*
X176400000Y-93950000D03*
X176400000Y-94450000D03*
X176400000Y-94950000D03*
X176400000Y-95450000D03*
X176400000Y-95950000D03*
X176400000Y-96450000D03*
D58*
X174450000Y-98400000D03*
X173950000Y-98400000D03*
X173450000Y-98400000D03*
X172950000Y-98400000D03*
X172450000Y-98400000D03*
X171950000Y-98400000D03*
X171450000Y-98400000D03*
X170950000Y-98400000D03*
X170450000Y-98400000D03*
X169950000Y-98400000D03*
X169450000Y-98400000D03*
X168950000Y-98400000D03*
X168450000Y-98400000D03*
X167950000Y-98400000D03*
X167450000Y-98400000D03*
X166950000Y-98400000D03*
X166450000Y-98400000D03*
X165950000Y-98400000D03*
X165450000Y-98400000D03*
X164950000Y-98400000D03*
X164450000Y-98400000D03*
X163950000Y-98400000D03*
X163450000Y-98400000D03*
X162950000Y-98400000D03*
X162450000Y-98400000D03*
X161950000Y-98400000D03*
X161450000Y-98400000D03*
X160950000Y-98400000D03*
X160450000Y-98400000D03*
X159950000Y-98400000D03*
X159450000Y-98400000D03*
X158950000Y-98400000D03*
X158450000Y-98400000D03*
X157950000Y-98400000D03*
X157450000Y-98400000D03*
X156950000Y-98400000D03*
D52*
X155000000Y-96450000D03*
X155000000Y-95950000D03*
X155000000Y-95450000D03*
X155000000Y-94950000D03*
X155000000Y-94450000D03*
X155000000Y-93950000D03*
X155000000Y-93450000D03*
X155000000Y-92950000D03*
X155000000Y-92450000D03*
X155000000Y-91950000D03*
X155000000Y-91450000D03*
X155000000Y-90950000D03*
X155000000Y-90450000D03*
X155000000Y-89950000D03*
X155000000Y-89450000D03*
X155000000Y-88950000D03*
X155000000Y-88450000D03*
X155000000Y-87950000D03*
X155000000Y-87450000D03*
X155000000Y-86950000D03*
X155000000Y-86450000D03*
X155000000Y-85950000D03*
X155000000Y-85450000D03*
X155000000Y-84950000D03*
X155000000Y-84450000D03*
X155000000Y-83950000D03*
X155000000Y-83450000D03*
X155000000Y-82950000D03*
X155000000Y-82450000D03*
X155000000Y-81950000D03*
X155000000Y-81450000D03*
X155000000Y-80950000D03*
X155000000Y-80450000D03*
X155000000Y-79950000D03*
X155000000Y-79450000D03*
X155000000Y-78950000D03*
D58*
X156950000Y-77000000D03*
X157450000Y-77000000D03*
X157950000Y-77000000D03*
X158450000Y-77000000D03*
X158950000Y-77000000D03*
X159450000Y-77000000D03*
X159950000Y-77000000D03*
X160450000Y-77000000D03*
X160950000Y-77000000D03*
X161450000Y-77000000D03*
X161950000Y-77000000D03*
X162450000Y-77000000D03*
X162950000Y-77000000D03*
X163450000Y-77000000D03*
X163950000Y-77000000D03*
X164450000Y-77000000D03*
X164950000Y-77000000D03*
X165450000Y-77000000D03*
X165950000Y-77000000D03*
X166450000Y-77000000D03*
X166950000Y-77000000D03*
X167450000Y-77000000D03*
X167950000Y-77000000D03*
X168450000Y-77000000D03*
X168950000Y-77000000D03*
X169450000Y-77000000D03*
X169950000Y-77000000D03*
X170450000Y-77000000D03*
X170950000Y-77000000D03*
X171450000Y-77000000D03*
X171950000Y-77000000D03*
X172450000Y-77000000D03*
X172950000Y-77000000D03*
X173450000Y-77000000D03*
X173950000Y-77000000D03*
X174450000Y-77000000D03*
G04 #@! TD*
D59*
G04 #@! TO.C,U35*
X125000000Y-137210000D03*
X125000000Y-135940000D03*
X125000000Y-134670000D03*
X125000000Y-133400000D03*
X125000000Y-132130000D03*
X125000000Y-130860000D03*
X125000000Y-129590000D03*
X130400000Y-129590000D03*
X130400000Y-130860000D03*
X130400000Y-132130000D03*
X130400000Y-133400000D03*
X130400000Y-134670000D03*
X130400000Y-135940000D03*
X130400000Y-137210000D03*
G04 #@! TD*
G04 #@! TO.C,U4*
X202457757Y-38328795D03*
X202457757Y-39598795D03*
X202457757Y-40868795D03*
X202457757Y-42138795D03*
X202457757Y-43408795D03*
X202457757Y-44678795D03*
X202457757Y-45948795D03*
X197057757Y-45948795D03*
X197057757Y-44678795D03*
X197057757Y-43408795D03*
X197057757Y-42138795D03*
X197057757Y-40868795D03*
X197057757Y-39598795D03*
X197057757Y-38328795D03*
G04 #@! TD*
G04 #@! TO.C,U3*
X163257757Y-45648795D03*
X163257757Y-44378795D03*
X163257757Y-43108795D03*
X163257757Y-41838795D03*
X163257757Y-40568795D03*
X163257757Y-39298795D03*
X163257757Y-38028795D03*
X168657757Y-38028795D03*
X168657757Y-39298795D03*
X168657757Y-40568795D03*
X168657757Y-41838795D03*
X168657757Y-43108795D03*
X168657757Y-44378795D03*
X168657757Y-45648795D03*
G04 #@! TD*
G04 #@! TO.C,U33*
X124950000Y-70110000D03*
X124950000Y-68840000D03*
X124950000Y-67570000D03*
X124950000Y-66300000D03*
X124950000Y-65030000D03*
X124950000Y-63760000D03*
X124950000Y-62490000D03*
X130350000Y-62490000D03*
X130350000Y-63760000D03*
X130350000Y-65030000D03*
X130350000Y-66300000D03*
X130350000Y-67570000D03*
X130350000Y-68840000D03*
X130350000Y-70110000D03*
G04 #@! TD*
D60*
G04 #@! TO.C,U16*
X232297757Y-38038795D03*
X233567757Y-38038795D03*
X234837757Y-38038795D03*
X236107757Y-38038795D03*
X237377757Y-38038795D03*
X238647757Y-38038795D03*
X239917757Y-38038795D03*
X239917757Y-43438795D03*
X238647757Y-43438795D03*
X237377757Y-43438795D03*
X236107757Y-43438795D03*
X234837757Y-43438795D03*
X233567757Y-43438795D03*
X232297757Y-43438795D03*
G04 #@! TD*
D61*
G04 #@! TO.C,U8*
X244999472Y-102470919D03*
X244999472Y-103740919D03*
X244999472Y-105010919D03*
X244999472Y-106280919D03*
X239599472Y-106280919D03*
X239599472Y-105010919D03*
X239599472Y-103740919D03*
X239599472Y-102470919D03*
G04 #@! TD*
G04 #@! TO.C,U1*
X219507757Y-42733795D03*
X219507757Y-44003795D03*
X219507757Y-45273795D03*
X219507757Y-46543795D03*
X214107757Y-46543795D03*
X214107757Y-45273795D03*
X214107757Y-44003795D03*
X214107757Y-42733795D03*
G04 #@! TD*
G04 #@! TO.C,U15*
X245000000Y-116495000D03*
X245000000Y-117765000D03*
X245000000Y-119035000D03*
X245000000Y-120305000D03*
X239600000Y-120305000D03*
X239600000Y-119035000D03*
X239600000Y-117765000D03*
X239600000Y-116495000D03*
G04 #@! TD*
G04 #@! TO.C,U17*
X185775001Y-86530001D03*
X185775001Y-87800001D03*
X185775001Y-89070001D03*
X185775001Y-90340001D03*
X180375001Y-90340001D03*
X180375001Y-89070001D03*
X180375001Y-87800001D03*
X180375001Y-86530001D03*
G04 #@! TD*
D62*
G04 #@! TO.C,U34*
X225505000Y-79900000D03*
X224235000Y-79900000D03*
X222965000Y-79900000D03*
X221695000Y-79900000D03*
X221695000Y-74500000D03*
X222965000Y-74500000D03*
X224235000Y-74500000D03*
X225505000Y-74500000D03*
G04 #@! TD*
D61*
G04 #@! TO.C,U9*
X245000000Y-109495000D03*
X245000000Y-110765000D03*
X245000000Y-112035000D03*
X245000000Y-113305000D03*
X239600000Y-113305000D03*
X239600000Y-112035000D03*
X239600000Y-110765000D03*
X239600000Y-109495000D03*
G04 #@! TD*
D63*
G04 #@! TO.C,U2*
X167075000Y-130150000D03*
X167725000Y-130150000D03*
X168375000Y-130150000D03*
X169025000Y-130150000D03*
X169675000Y-130150000D03*
X170325000Y-130150000D03*
X170975000Y-130150000D03*
X171625000Y-130150000D03*
X172275000Y-130150000D03*
X172925000Y-130150000D03*
X172925000Y-137350000D03*
X172275000Y-137350000D03*
X171625000Y-137350000D03*
X170975000Y-137350000D03*
X170325000Y-137350000D03*
X169675000Y-137350000D03*
X169025000Y-137350000D03*
X168375000Y-137350000D03*
X167725000Y-137350000D03*
X167075000Y-137350000D03*
G04 #@! TD*
D64*
G04 #@! TO.C,U6*
X182257757Y-42763795D03*
X182257757Y-42113795D03*
X182257757Y-41463795D03*
X182257757Y-40813795D03*
X182257757Y-40163795D03*
X182257757Y-39513795D03*
X182257757Y-38863795D03*
X182257757Y-38213795D03*
X188157757Y-38213795D03*
X188157757Y-38863795D03*
X188157757Y-39513795D03*
X188157757Y-40163795D03*
X188157757Y-40813795D03*
X188157757Y-41463795D03*
X188157757Y-42113795D03*
X188157757Y-42763795D03*
G04 #@! TD*
D65*
G04 #@! TO.C,U10*
X242817243Y-37861205D03*
X243467243Y-37861205D03*
X244117243Y-37861205D03*
X244767243Y-37861205D03*
X245417243Y-37861205D03*
X246067243Y-37861205D03*
X246717243Y-37861205D03*
X247367243Y-37861205D03*
X248017243Y-37861205D03*
X248667243Y-37861205D03*
X248667243Y-43761205D03*
X248017243Y-43761205D03*
X247367243Y-43761205D03*
X246717243Y-43761205D03*
X246067243Y-43761205D03*
X245417243Y-43761205D03*
X244767243Y-43761205D03*
X244117243Y-43761205D03*
X243467243Y-43761205D03*
X242817243Y-43761205D03*
G04 #@! TD*
G04 #@! TO.C,U29*
X144825000Y-86900000D03*
X145475000Y-86900000D03*
X146125000Y-86900000D03*
X146775000Y-86900000D03*
X147425000Y-86900000D03*
X148075000Y-86900000D03*
X148725000Y-86900000D03*
X149375000Y-86900000D03*
X150025000Y-86900000D03*
X150675000Y-86900000D03*
X150675000Y-92800000D03*
X150025000Y-92800000D03*
X149375000Y-92800000D03*
X148725000Y-92800000D03*
X148075000Y-92800000D03*
X147425000Y-92800000D03*
X146775000Y-92800000D03*
X146125000Y-92800000D03*
X145475000Y-92800000D03*
X144825000Y-92800000D03*
G04 #@! TD*
D66*
G04 #@! TO.C,D18*
X228250000Y-79500000D03*
X229200000Y-81500000D03*
X227300000Y-81500000D03*
G04 #@! TD*
G04 #@! TO.C,U7*
X155950000Y-69250000D03*
X156900000Y-71250000D03*
X155000000Y-71250000D03*
G04 #@! TD*
D67*
G04 #@! TO.C,D23*
X156700000Y-75100000D03*
X154800000Y-75100000D03*
X154800000Y-72900000D03*
X155750000Y-72900000D03*
X156700000Y-72900000D03*
G04 #@! TD*
D42*
G04 #@! TO.C,U22*
X128800000Y-92500000D03*
X128800000Y-94400000D03*
X126600000Y-94400000D03*
X126600000Y-93450000D03*
X126600000Y-92500000D03*
G04 #@! TD*
D68*
G04 #@! TO.C,D11*
X248900000Y-111400000D03*
X246900000Y-112050000D03*
X246900000Y-110750000D03*
G04 #@! TD*
G04 #@! TO.C,D13*
X248900000Y-118400000D03*
X246900000Y-119050000D03*
X246900000Y-117750000D03*
G04 #@! TD*
G04 #@! TO.C,D10*
X248899472Y-104375919D03*
X246899472Y-105025919D03*
X246899472Y-103725919D03*
G04 #@! TD*
D26*
G04 #@! TO.C,R22*
X159720257Y-38388795D03*
X160495257Y-38388795D03*
G04 #@! TD*
G04 #@! TO.C,R14*
X160495257Y-39388795D03*
X159720257Y-39388795D03*
G04 #@! TD*
D27*
G04 #@! TO.C,R16*
X204007757Y-44863795D03*
X204007757Y-45638795D03*
G04 #@! TD*
G04 #@! TO.C,R17*
X204007757Y-39276295D03*
X204007757Y-38501295D03*
G04 #@! TD*
D26*
G04 #@! TO.C,R104*
X104687500Y-139500000D03*
X103912500Y-139500000D03*
G04 #@! TD*
G04 #@! TO.C,R19*
X171312500Y-38588795D03*
X172087500Y-38588795D03*
G04 #@! TD*
G04 #@! TO.C,R107*
X104687500Y-130750000D03*
X103912500Y-130750000D03*
G04 #@! TD*
G04 #@! TO.C,R20*
X194395257Y-38888795D03*
X193620257Y-38888795D03*
G04 #@! TD*
G04 #@! TO.C,R21*
X194345257Y-45988795D03*
X193570257Y-45988795D03*
G04 #@! TD*
G04 #@! TO.C,R23*
X160495257Y-45788795D03*
X159720257Y-45788795D03*
G04 #@! TD*
G04 #@! TO.C,R24*
X205120257Y-45838795D03*
X205895257Y-45838795D03*
G04 #@! TD*
G04 #@! TO.C,R18*
X171270257Y-45588795D03*
X172045257Y-45588795D03*
G04 #@! TD*
G04 #@! TO.C,R103*
X105137500Y-60350000D03*
X104362500Y-60350000D03*
G04 #@! TD*
G04 #@! TO.C,R102*
X105137500Y-59350000D03*
X104362500Y-59350000D03*
G04 #@! TD*
G04 #@! TO.C,R101*
X105137500Y-68650000D03*
X104362500Y-68650000D03*
G04 #@! TD*
G04 #@! TO.C,R100*
X105137500Y-67650000D03*
X104362500Y-67650000D03*
G04 #@! TD*
G04 #@! TO.C,R99*
X132837500Y-129900000D03*
X132062500Y-129900000D03*
G04 #@! TD*
D27*
G04 #@! TO.C,R15*
X161607757Y-44501295D03*
X161607757Y-45276295D03*
G04 #@! TD*
D26*
G04 #@! TO.C,R174*
X104687500Y-116750000D03*
X103912500Y-116750000D03*
G04 #@! TD*
G04 #@! TO.C,R175*
X104687500Y-109500000D03*
X103912500Y-109500000D03*
G04 #@! TD*
G04 #@! TO.C,R177*
X122475000Y-68500000D03*
X123250000Y-68500000D03*
G04 #@! TD*
G04 #@! TO.C,R178*
X123237500Y-67500000D03*
X122462500Y-67500000D03*
G04 #@! TD*
G04 #@! TO.C,R179*
X122512500Y-69550000D03*
X123287500Y-69550000D03*
G04 #@! TD*
G04 #@! TO.C,R180*
X122562500Y-134400000D03*
X123337500Y-134400000D03*
G04 #@! TD*
G04 #@! TO.C,R181*
X123337500Y-133400000D03*
X122562500Y-133400000D03*
G04 #@! TD*
G04 #@! TO.C,R182*
X122562500Y-135400000D03*
X123337500Y-135400000D03*
G04 #@! TD*
G04 #@! TO.C,R105*
X104687500Y-138500000D03*
X103912500Y-138500000D03*
G04 #@! TD*
G04 #@! TO.C,R176*
X104687500Y-110500000D03*
X103912500Y-110500000D03*
G04 #@! TD*
D27*
G04 #@! TO.C,R12*
X195557757Y-39276295D03*
X195557757Y-38501295D03*
G04 #@! TD*
G04 #@! TO.C,R13*
X195507757Y-44901295D03*
X195507757Y-45676295D03*
G04 #@! TD*
D26*
G04 #@! TO.C,R106*
X104687500Y-129750000D03*
X103912500Y-129750000D03*
G04 #@! TD*
D27*
G04 #@! TO.C,R47*
X240557757Y-45301295D03*
X240557757Y-46076295D03*
G04 #@! TD*
G04 #@! TO.C,R53*
X239457757Y-36263795D03*
X239457757Y-35488795D03*
G04 #@! TD*
D26*
G04 #@! TO.C,R26*
X171270257Y-46588795D03*
X172045257Y-46588795D03*
G04 #@! TD*
G04 #@! TO.C,R27*
X171312500Y-40950000D03*
X172087500Y-40950000D03*
G04 #@! TD*
G04 #@! TO.C,R28*
X194395257Y-37888795D03*
X193620257Y-37888795D03*
G04 #@! TD*
G04 #@! TO.C,R29*
X194337500Y-43700000D03*
X193562500Y-43700000D03*
G04 #@! TD*
G04 #@! TO.C,R30*
X159732757Y-37388795D03*
X160507757Y-37388795D03*
G04 #@! TD*
G04 #@! TO.C,R31*
X160495257Y-46788795D03*
X159720257Y-46788795D03*
G04 #@! TD*
G04 #@! TO.C,R32*
X205120257Y-46838795D03*
X205895257Y-46838795D03*
G04 #@! TD*
G04 #@! TO.C,R173*
X104687500Y-117750000D03*
X103912500Y-117750000D03*
G04 #@! TD*
G04 #@! TO.C,R34*
X211670257Y-43888795D03*
X212445257Y-43888795D03*
G04 #@! TD*
G04 #@! TO.C,R37*
X107212500Y-97050000D03*
X107987500Y-97050000D03*
G04 #@! TD*
G04 #@! TO.C,R38*
X107987500Y-98050000D03*
X107212500Y-98050000D03*
G04 #@! TD*
G04 #@! TO.C,R40*
X100387500Y-100750000D03*
X99612500Y-100750000D03*
G04 #@! TD*
D27*
G04 #@! TO.C,R41*
X233557757Y-45976295D03*
X233557757Y-45201295D03*
G04 #@! TD*
G04 #@! TO.C,R42*
X239557757Y-46076295D03*
X239557757Y-45301295D03*
G04 #@! TD*
D26*
G04 #@! TO.C,R33*
X205120257Y-37638795D03*
X205895257Y-37638795D03*
G04 #@! TD*
G04 #@! TO.C,R172*
X105137500Y-40000000D03*
X104362500Y-40000000D03*
G04 #@! TD*
D27*
G04 #@! TO.C,R10*
X170157757Y-44701295D03*
X170157757Y-45476295D03*
G04 #@! TD*
G04 #@! TO.C,R11*
X170157757Y-38976295D03*
X170157757Y-38201295D03*
G04 #@! TD*
D26*
G04 #@! TO.C,R109*
X181362500Y-99250000D03*
X182137500Y-99250000D03*
G04 #@! TD*
D27*
G04 #@! TO.C,R57*
X231757757Y-35613795D03*
X231757757Y-36388795D03*
G04 #@! TD*
D26*
G04 #@! TO.C,R112*
X132062500Y-128900000D03*
X132837500Y-128900000D03*
G04 #@! TD*
G04 #@! TO.C,R51*
X255037226Y-93924480D03*
X254262226Y-93924480D03*
G04 #@! TD*
G04 #@! TO.C,R52*
X255037226Y-94924480D03*
X254262226Y-94924480D03*
G04 #@! TD*
G04 #@! TO.C,R25*
X205120257Y-38638795D03*
X205895257Y-38638795D03*
G04 #@! TD*
D27*
G04 #@! TO.C,R54*
X232757757Y-36376295D03*
X232757757Y-35601295D03*
G04 #@! TD*
G04 #@! TO.C,R56*
X240457757Y-35501295D03*
X240457757Y-36276295D03*
G04 #@! TD*
G04 #@! TO.C,R46*
X232557757Y-45201295D03*
X232557757Y-45976295D03*
G04 #@! TD*
D26*
G04 #@! TO.C,R111*
X132012500Y-62500000D03*
X132787500Y-62500000D03*
G04 #@! TD*
G04 #@! TO.C,R160*
X227612500Y-75250000D03*
X228387500Y-75250000D03*
G04 #@! TD*
G04 #@! TO.C,R162*
X181362500Y-92250000D03*
X182137500Y-92250000D03*
G04 #@! TD*
G04 #@! TO.C,R134*
X122562500Y-131400000D03*
X123337500Y-131400000D03*
G04 #@! TD*
G04 #@! TO.C,R62*
X125087500Y-93650000D03*
X124312500Y-93650000D03*
G04 #@! TD*
G04 #@! TO.C,R63*
X134487500Y-83600000D03*
X133712500Y-83600000D03*
G04 #@! TD*
G04 #@! TO.C,R64*
X134487500Y-84600000D03*
X133712500Y-84600000D03*
G04 #@! TD*
G04 #@! TO.C,R67*
X125132500Y-101250000D03*
X124357500Y-101250000D03*
G04 #@! TD*
G04 #@! TO.C,R121*
X181362500Y-95250000D03*
X182137500Y-95250000D03*
G04 #@! TD*
G04 #@! TO.C,R71*
X153087500Y-42950000D03*
X152312500Y-42950000D03*
G04 #@! TD*
D27*
G04 #@! TO.C,R72*
X146500000Y-36662500D03*
X146500000Y-37437500D03*
G04 #@! TD*
G04 #@! TO.C,R73*
X149750000Y-139887500D03*
X149750000Y-139112500D03*
G04 #@! TD*
D26*
G04 #@! TO.C,R161*
X181362500Y-97250000D03*
X182137500Y-97250000D03*
G04 #@! TD*
D27*
G04 #@! TO.C,R75*
X145250000Y-139887500D03*
X145250000Y-139112500D03*
G04 #@! TD*
G04 #@! TO.C,R113*
X216600000Y-59200000D03*
X216600000Y-58425000D03*
G04 #@! TD*
G04 #@! TO.C,R116*
X218800000Y-73962500D03*
X218800000Y-74737500D03*
G04 #@! TD*
D26*
G04 #@! TO.C,R70*
X143900000Y-44250000D03*
X144675000Y-44250000D03*
G04 #@! TD*
G04 #@! TO.C,R137*
X105137500Y-57350000D03*
X104362500Y-57350000D03*
G04 #@! TD*
G04 #@! TO.C,R147*
X227612500Y-60000000D03*
X228387500Y-60000000D03*
G04 #@! TD*
G04 #@! TO.C,R136*
X122562500Y-130400000D03*
X123337500Y-130400000D03*
G04 #@! TD*
G04 #@! TO.C,R135*
X123337500Y-132400000D03*
X122562500Y-132400000D03*
G04 #@! TD*
G04 #@! TO.C,R138*
X105137500Y-58350000D03*
X104362500Y-58350000D03*
G04 #@! TD*
G04 #@! TO.C,R139*
X105137500Y-48800000D03*
X104362500Y-48800000D03*
G04 #@! TD*
G04 #@! TO.C,R133*
X122512500Y-63050000D03*
X123287500Y-63050000D03*
G04 #@! TD*
G04 #@! TO.C,R140*
X105137500Y-49800000D03*
X104362500Y-49800000D03*
G04 #@! TD*
G04 #@! TO.C,R141*
X104687500Y-128750000D03*
X103912500Y-128750000D03*
G04 #@! TD*
G04 #@! TO.C,R143*
X104687500Y-118750000D03*
X103912500Y-118750000D03*
G04 #@! TD*
G04 #@! TO.C,R144*
X104687500Y-119750000D03*
X103912500Y-119750000D03*
G04 #@! TD*
G04 #@! TO.C,R148*
X228387500Y-73250000D03*
X227612500Y-73250000D03*
G04 #@! TD*
G04 #@! TO.C,R149*
X227612500Y-77250000D03*
X228387500Y-77250000D03*
G04 #@! TD*
G04 #@! TO.C,R152*
X227612500Y-78250000D03*
X228387500Y-78250000D03*
G04 #@! TD*
G04 #@! TO.C,R153*
X123287500Y-62050000D03*
X122512500Y-62050000D03*
G04 #@! TD*
G04 #@! TO.C,R154*
X123337500Y-129400000D03*
X122562500Y-129400000D03*
G04 #@! TD*
G04 #@! TO.C,R155*
X227612500Y-76250000D03*
X228387500Y-76250000D03*
G04 #@! TD*
G04 #@! TO.C,R142*
X104687500Y-127750000D03*
X103912500Y-127750000D03*
G04 #@! TD*
G04 #@! TO.C,R88*
X132787500Y-69250000D03*
X132012500Y-69250000D03*
G04 #@! TD*
G04 #@! TO.C,R89*
X132012500Y-68250000D03*
X132787500Y-68250000D03*
G04 #@! TD*
G04 #@! TO.C,R90*
X132837500Y-134400000D03*
X132062500Y-134400000D03*
G04 #@! TD*
G04 #@! TO.C,R91*
X132062500Y-135400000D03*
X132837500Y-135400000D03*
G04 #@! TD*
G04 #@! TO.C,R92*
X119287500Y-58250000D03*
X118512500Y-58250000D03*
G04 #@! TD*
D27*
G04 #@! TO.C,R93*
X118250000Y-125362500D03*
X118250000Y-126137500D03*
G04 #@! TD*
D26*
G04 #@! TO.C,R94*
X132787500Y-64500000D03*
X132012500Y-64500000D03*
G04 #@! TD*
G04 #@! TO.C,R95*
X132012500Y-65500000D03*
X132787500Y-65500000D03*
G04 #@! TD*
G04 #@! TO.C,R96*
X132787500Y-63500000D03*
X132012500Y-63500000D03*
G04 #@! TD*
G04 #@! TO.C,R98*
X132062500Y-132400000D03*
X132837500Y-132400000D03*
G04 #@! TD*
G04 #@! TO.C,R169*
X105137500Y-46800000D03*
X104362500Y-46800000D03*
G04 #@! TD*
G04 #@! TO.C,R170*
X105137500Y-47800000D03*
X104362500Y-47800000D03*
G04 #@! TD*
G04 #@! TO.C,R97*
X132837500Y-131400000D03*
X132062500Y-131400000D03*
G04 #@! TD*
G04 #@! TO.C,R171*
X105137500Y-41000000D03*
X104362500Y-41000000D03*
G04 #@! TD*
D27*
G04 #@! TO.C,R129*
X221300000Y-81712500D03*
X221300000Y-82487500D03*
G04 #@! TD*
G04 #@! TO.C,R130*
X224400000Y-81712500D03*
X224400000Y-82487500D03*
G04 #@! TD*
D26*
G04 #@! TO.C,R131*
X122512500Y-65050000D03*
X123287500Y-65050000D03*
G04 #@! TD*
G04 #@! TO.C,R132*
X123287500Y-66050000D03*
X122512500Y-66050000D03*
G04 #@! TD*
D27*
G04 #@! TO.C,R74*
X149727841Y-130438961D03*
X149727841Y-131213961D03*
G04 #@! TD*
D26*
G04 #@! TO.C,R193*
X123287500Y-70550000D03*
X122512500Y-70550000D03*
G04 #@! TD*
G04 #@! TO.C,R194*
X123337500Y-136400000D03*
X122562500Y-136400000D03*
G04 #@! TD*
G04 #@! TO.C,R122*
X180387500Y-96250000D03*
X179612500Y-96250000D03*
G04 #@! TD*
G04 #@! TO.C,R83*
X132787500Y-111700000D03*
X132012500Y-111700000D03*
G04 #@! TD*
G04 #@! TO.C,R82*
X132787500Y-112700000D03*
X132012500Y-112700000D03*
G04 #@! TD*
G04 #@! TO.C,R81*
X132537500Y-46100000D03*
X131762500Y-46100000D03*
G04 #@! TD*
G04 #@! TO.C,R80*
X132537500Y-47100000D03*
X131762500Y-47100000D03*
G04 #@! TD*
G04 #@! TO.C,R79*
X180387500Y-99250000D03*
X179612500Y-99250000D03*
G04 #@! TD*
G04 #@! TO.C,R78*
X181362500Y-98250000D03*
X182137500Y-98250000D03*
G04 #@! TD*
D43*
G04 #@! TO.C,R58*
X132625000Y-81000000D03*
X134375000Y-81000000D03*
G04 #@! TD*
D36*
G04 #@! TO.C,R61*
X129045000Y-88750000D03*
X130955000Y-88750000D03*
G04 #@! TD*
D19*
G04 #@! TO.C,R55*
X123500000Y-87795000D03*
X123500000Y-89705000D03*
G04 #@! TD*
D36*
G04 #@! TO.C,R39*
X95795000Y-96750000D03*
X97705000Y-96750000D03*
G04 #@! TD*
D14*
G04 #@! TO.C,S2*
G36*
X259028623Y-141775915D02*
X259047067Y-141778651D01*
X259065154Y-141783181D01*
X259082710Y-141789463D01*
X259099565Y-141797435D01*
X259115558Y-141807021D01*
X259130535Y-141818128D01*
X259144350Y-141830650D01*
X259156872Y-141844465D01*
X259167979Y-141859442D01*
X259177565Y-141875435D01*
X259185537Y-141892290D01*
X259191819Y-141909846D01*
X259196349Y-141927933D01*
X259199085Y-141946377D01*
X259200000Y-141965000D01*
X259200000Y-142345000D01*
X259199085Y-142363623D01*
X259196349Y-142382067D01*
X259191819Y-142400154D01*
X259185537Y-142417710D01*
X259177565Y-142434565D01*
X259167979Y-142450558D01*
X259156872Y-142465535D01*
X259144350Y-142479350D01*
X259130535Y-142491872D01*
X259115558Y-142502979D01*
X259099565Y-142512565D01*
X259082710Y-142520537D01*
X259065154Y-142526819D01*
X259047067Y-142531349D01*
X259028623Y-142534085D01*
X259010000Y-142535000D01*
X258140000Y-142535000D01*
X258121377Y-142534085D01*
X258102933Y-142531349D01*
X258084846Y-142526819D01*
X258067290Y-142520537D01*
X258050435Y-142512565D01*
X258034442Y-142502979D01*
X258019465Y-142491872D01*
X258005650Y-142479350D01*
X257993128Y-142465535D01*
X257982021Y-142450558D01*
X257972435Y-142434565D01*
X257964463Y-142417710D01*
X257958181Y-142400154D01*
X257953651Y-142382067D01*
X257950915Y-142363623D01*
X257950000Y-142345000D01*
X257950000Y-141965000D01*
X257950915Y-141946377D01*
X257953651Y-141927933D01*
X257958181Y-141909846D01*
X257964463Y-141892290D01*
X257972435Y-141875435D01*
X257982021Y-141859442D01*
X257993128Y-141844465D01*
X258005650Y-141830650D01*
X258019465Y-141818128D01*
X258034442Y-141807021D01*
X258050435Y-141797435D01*
X258067290Y-141789463D01*
X258084846Y-141783181D01*
X258102933Y-141778651D01*
X258121377Y-141775915D01*
X258140000Y-141775000D01*
X259010000Y-141775000D01*
X259028623Y-141775915D01*
X259028623Y-141775915D01*
G37*
D69*
X258575000Y-142155000D03*
D14*
G36*
X252878623Y-141775915D02*
X252897067Y-141778651D01*
X252915154Y-141783181D01*
X252932710Y-141789463D01*
X252949565Y-141797435D01*
X252965558Y-141807021D01*
X252980535Y-141818128D01*
X252994350Y-141830650D01*
X253006872Y-141844465D01*
X253017979Y-141859442D01*
X253027565Y-141875435D01*
X253035537Y-141892290D01*
X253041819Y-141909846D01*
X253046349Y-141927933D01*
X253049085Y-141946377D01*
X253050000Y-141965000D01*
X253050000Y-142345000D01*
X253049085Y-142363623D01*
X253046349Y-142382067D01*
X253041819Y-142400154D01*
X253035537Y-142417710D01*
X253027565Y-142434565D01*
X253017979Y-142450558D01*
X253006872Y-142465535D01*
X252994350Y-142479350D01*
X252980535Y-142491872D01*
X252965558Y-142502979D01*
X252949565Y-142512565D01*
X252932710Y-142520537D01*
X252915154Y-142526819D01*
X252897067Y-142531349D01*
X252878623Y-142534085D01*
X252860000Y-142535000D01*
X251990000Y-142535000D01*
X251971377Y-142534085D01*
X251952933Y-142531349D01*
X251934846Y-142526819D01*
X251917290Y-142520537D01*
X251900435Y-142512565D01*
X251884442Y-142502979D01*
X251869465Y-142491872D01*
X251855650Y-142479350D01*
X251843128Y-142465535D01*
X251832021Y-142450558D01*
X251822435Y-142434565D01*
X251814463Y-142417710D01*
X251808181Y-142400154D01*
X251803651Y-142382067D01*
X251800915Y-142363623D01*
X251800000Y-142345000D01*
X251800000Y-141965000D01*
X251800915Y-141946377D01*
X251803651Y-141927933D01*
X251808181Y-141909846D01*
X251814463Y-141892290D01*
X251822435Y-141875435D01*
X251832021Y-141859442D01*
X251843128Y-141844465D01*
X251855650Y-141830650D01*
X251869465Y-141818128D01*
X251884442Y-141807021D01*
X251900435Y-141797435D01*
X251917290Y-141789463D01*
X251934846Y-141783181D01*
X251952933Y-141778651D01*
X251971377Y-141775915D01*
X251990000Y-141775000D01*
X252860000Y-141775000D01*
X252878623Y-141775915D01*
X252878623Y-141775915D01*
G37*
D69*
X252425000Y-142155000D03*
D14*
G36*
X259028623Y-140505915D02*
X259047067Y-140508651D01*
X259065154Y-140513181D01*
X259082710Y-140519463D01*
X259099565Y-140527435D01*
X259115558Y-140537021D01*
X259130535Y-140548128D01*
X259144350Y-140560650D01*
X259156872Y-140574465D01*
X259167979Y-140589442D01*
X259177565Y-140605435D01*
X259185537Y-140622290D01*
X259191819Y-140639846D01*
X259196349Y-140657933D01*
X259199085Y-140676377D01*
X259200000Y-140695000D01*
X259200000Y-141075000D01*
X259199085Y-141093623D01*
X259196349Y-141112067D01*
X259191819Y-141130154D01*
X259185537Y-141147710D01*
X259177565Y-141164565D01*
X259167979Y-141180558D01*
X259156872Y-141195535D01*
X259144350Y-141209350D01*
X259130535Y-141221872D01*
X259115558Y-141232979D01*
X259099565Y-141242565D01*
X259082710Y-141250537D01*
X259065154Y-141256819D01*
X259047067Y-141261349D01*
X259028623Y-141264085D01*
X259010000Y-141265000D01*
X258140000Y-141265000D01*
X258121377Y-141264085D01*
X258102933Y-141261349D01*
X258084846Y-141256819D01*
X258067290Y-141250537D01*
X258050435Y-141242565D01*
X258034442Y-141232979D01*
X258019465Y-141221872D01*
X258005650Y-141209350D01*
X257993128Y-141195535D01*
X257982021Y-141180558D01*
X257972435Y-141164565D01*
X257964463Y-141147710D01*
X257958181Y-141130154D01*
X257953651Y-141112067D01*
X257950915Y-141093623D01*
X257950000Y-141075000D01*
X257950000Y-140695000D01*
X257950915Y-140676377D01*
X257953651Y-140657933D01*
X257958181Y-140639846D01*
X257964463Y-140622290D01*
X257972435Y-140605435D01*
X257982021Y-140589442D01*
X257993128Y-140574465D01*
X258005650Y-140560650D01*
X258019465Y-140548128D01*
X258034442Y-140537021D01*
X258050435Y-140527435D01*
X258067290Y-140519463D01*
X258084846Y-140513181D01*
X258102933Y-140508651D01*
X258121377Y-140505915D01*
X258140000Y-140505000D01*
X259010000Y-140505000D01*
X259028623Y-140505915D01*
X259028623Y-140505915D01*
G37*
D69*
X258575000Y-140885000D03*
D14*
G36*
X252878623Y-140505915D02*
X252897067Y-140508651D01*
X252915154Y-140513181D01*
X252932710Y-140519463D01*
X252949565Y-140527435D01*
X252965558Y-140537021D01*
X252980535Y-140548128D01*
X252994350Y-140560650D01*
X253006872Y-140574465D01*
X253017979Y-140589442D01*
X253027565Y-140605435D01*
X253035537Y-140622290D01*
X253041819Y-140639846D01*
X253046349Y-140657933D01*
X253049085Y-140676377D01*
X253050000Y-140695000D01*
X253050000Y-141075000D01*
X253049085Y-141093623D01*
X253046349Y-141112067D01*
X253041819Y-141130154D01*
X253035537Y-141147710D01*
X253027565Y-141164565D01*
X253017979Y-141180558D01*
X253006872Y-141195535D01*
X252994350Y-141209350D01*
X252980535Y-141221872D01*
X252965558Y-141232979D01*
X252949565Y-141242565D01*
X252932710Y-141250537D01*
X252915154Y-141256819D01*
X252897067Y-141261349D01*
X252878623Y-141264085D01*
X252860000Y-141265000D01*
X251990000Y-141265000D01*
X251971377Y-141264085D01*
X251952933Y-141261349D01*
X251934846Y-141256819D01*
X251917290Y-141250537D01*
X251900435Y-141242565D01*
X251884442Y-141232979D01*
X251869465Y-141221872D01*
X251855650Y-141209350D01*
X251843128Y-141195535D01*
X251832021Y-141180558D01*
X251822435Y-141164565D01*
X251814463Y-141147710D01*
X251808181Y-141130154D01*
X251803651Y-141112067D01*
X251800915Y-141093623D01*
X251800000Y-141075000D01*
X251800000Y-140695000D01*
X251800915Y-140676377D01*
X251803651Y-140657933D01*
X251808181Y-140639846D01*
X251814463Y-140622290D01*
X251822435Y-140605435D01*
X251832021Y-140589442D01*
X251843128Y-140574465D01*
X251855650Y-140560650D01*
X251869465Y-140548128D01*
X251884442Y-140537021D01*
X251900435Y-140527435D01*
X251917290Y-140519463D01*
X251934846Y-140513181D01*
X251952933Y-140508651D01*
X251971377Y-140505915D01*
X251990000Y-140505000D01*
X252860000Y-140505000D01*
X252878623Y-140505915D01*
X252878623Y-140505915D01*
G37*
D69*
X252425000Y-140885000D03*
D14*
G36*
X259028623Y-139235915D02*
X259047067Y-139238651D01*
X259065154Y-139243181D01*
X259082710Y-139249463D01*
X259099565Y-139257435D01*
X259115558Y-139267021D01*
X259130535Y-139278128D01*
X259144350Y-139290650D01*
X259156872Y-139304465D01*
X259167979Y-139319442D01*
X259177565Y-139335435D01*
X259185537Y-139352290D01*
X259191819Y-139369846D01*
X259196349Y-139387933D01*
X259199085Y-139406377D01*
X259200000Y-139425000D01*
X259200000Y-139805000D01*
X259199085Y-139823623D01*
X259196349Y-139842067D01*
X259191819Y-139860154D01*
X259185537Y-139877710D01*
X259177565Y-139894565D01*
X259167979Y-139910558D01*
X259156872Y-139925535D01*
X259144350Y-139939350D01*
X259130535Y-139951872D01*
X259115558Y-139962979D01*
X259099565Y-139972565D01*
X259082710Y-139980537D01*
X259065154Y-139986819D01*
X259047067Y-139991349D01*
X259028623Y-139994085D01*
X259010000Y-139995000D01*
X258140000Y-139995000D01*
X258121377Y-139994085D01*
X258102933Y-139991349D01*
X258084846Y-139986819D01*
X258067290Y-139980537D01*
X258050435Y-139972565D01*
X258034442Y-139962979D01*
X258019465Y-139951872D01*
X258005650Y-139939350D01*
X257993128Y-139925535D01*
X257982021Y-139910558D01*
X257972435Y-139894565D01*
X257964463Y-139877710D01*
X257958181Y-139860154D01*
X257953651Y-139842067D01*
X257950915Y-139823623D01*
X257950000Y-139805000D01*
X257950000Y-139425000D01*
X257950915Y-139406377D01*
X257953651Y-139387933D01*
X257958181Y-139369846D01*
X257964463Y-139352290D01*
X257972435Y-139335435D01*
X257982021Y-139319442D01*
X257993128Y-139304465D01*
X258005650Y-139290650D01*
X258019465Y-139278128D01*
X258034442Y-139267021D01*
X258050435Y-139257435D01*
X258067290Y-139249463D01*
X258084846Y-139243181D01*
X258102933Y-139238651D01*
X258121377Y-139235915D01*
X258140000Y-139235000D01*
X259010000Y-139235000D01*
X259028623Y-139235915D01*
X259028623Y-139235915D01*
G37*
D69*
X258575000Y-139615000D03*
D14*
G36*
X252878623Y-139235915D02*
X252897067Y-139238651D01*
X252915154Y-139243181D01*
X252932710Y-139249463D01*
X252949565Y-139257435D01*
X252965558Y-139267021D01*
X252980535Y-139278128D01*
X252994350Y-139290650D01*
X253006872Y-139304465D01*
X253017979Y-139319442D01*
X253027565Y-139335435D01*
X253035537Y-139352290D01*
X253041819Y-139369846D01*
X253046349Y-139387933D01*
X253049085Y-139406377D01*
X253050000Y-139425000D01*
X253050000Y-139805000D01*
X253049085Y-139823623D01*
X253046349Y-139842067D01*
X253041819Y-139860154D01*
X253035537Y-139877710D01*
X253027565Y-139894565D01*
X253017979Y-139910558D01*
X253006872Y-139925535D01*
X252994350Y-139939350D01*
X252980535Y-139951872D01*
X252965558Y-139962979D01*
X252949565Y-139972565D01*
X252932710Y-139980537D01*
X252915154Y-139986819D01*
X252897067Y-139991349D01*
X252878623Y-139994085D01*
X252860000Y-139995000D01*
X251990000Y-139995000D01*
X251971377Y-139994085D01*
X251952933Y-139991349D01*
X251934846Y-139986819D01*
X251917290Y-139980537D01*
X251900435Y-139972565D01*
X251884442Y-139962979D01*
X251869465Y-139951872D01*
X251855650Y-139939350D01*
X251843128Y-139925535D01*
X251832021Y-139910558D01*
X251822435Y-139894565D01*
X251814463Y-139877710D01*
X251808181Y-139860154D01*
X251803651Y-139842067D01*
X251800915Y-139823623D01*
X251800000Y-139805000D01*
X251800000Y-139425000D01*
X251800915Y-139406377D01*
X251803651Y-139387933D01*
X251808181Y-139369846D01*
X251814463Y-139352290D01*
X251822435Y-139335435D01*
X251832021Y-139319442D01*
X251843128Y-139304465D01*
X251855650Y-139290650D01*
X251869465Y-139278128D01*
X251884442Y-139267021D01*
X251900435Y-139257435D01*
X251917290Y-139249463D01*
X251934846Y-139243181D01*
X251952933Y-139238651D01*
X251971377Y-139235915D01*
X251990000Y-139235000D01*
X252860000Y-139235000D01*
X252878623Y-139235915D01*
X252878623Y-139235915D01*
G37*
D69*
X252425000Y-139615000D03*
D14*
G36*
X259028623Y-137965915D02*
X259047067Y-137968651D01*
X259065154Y-137973181D01*
X259082710Y-137979463D01*
X259099565Y-137987435D01*
X259115558Y-137997021D01*
X259130535Y-138008128D01*
X259144350Y-138020650D01*
X259156872Y-138034465D01*
X259167979Y-138049442D01*
X259177565Y-138065435D01*
X259185537Y-138082290D01*
X259191819Y-138099846D01*
X259196349Y-138117933D01*
X259199085Y-138136377D01*
X259200000Y-138155000D01*
X259200000Y-138535000D01*
X259199085Y-138553623D01*
X259196349Y-138572067D01*
X259191819Y-138590154D01*
X259185537Y-138607710D01*
X259177565Y-138624565D01*
X259167979Y-138640558D01*
X259156872Y-138655535D01*
X259144350Y-138669350D01*
X259130535Y-138681872D01*
X259115558Y-138692979D01*
X259099565Y-138702565D01*
X259082710Y-138710537D01*
X259065154Y-138716819D01*
X259047067Y-138721349D01*
X259028623Y-138724085D01*
X259010000Y-138725000D01*
X258140000Y-138725000D01*
X258121377Y-138724085D01*
X258102933Y-138721349D01*
X258084846Y-138716819D01*
X258067290Y-138710537D01*
X258050435Y-138702565D01*
X258034442Y-138692979D01*
X258019465Y-138681872D01*
X258005650Y-138669350D01*
X257993128Y-138655535D01*
X257982021Y-138640558D01*
X257972435Y-138624565D01*
X257964463Y-138607710D01*
X257958181Y-138590154D01*
X257953651Y-138572067D01*
X257950915Y-138553623D01*
X257950000Y-138535000D01*
X257950000Y-138155000D01*
X257950915Y-138136377D01*
X257953651Y-138117933D01*
X257958181Y-138099846D01*
X257964463Y-138082290D01*
X257972435Y-138065435D01*
X257982021Y-138049442D01*
X257993128Y-138034465D01*
X258005650Y-138020650D01*
X258019465Y-138008128D01*
X258034442Y-137997021D01*
X258050435Y-137987435D01*
X258067290Y-137979463D01*
X258084846Y-137973181D01*
X258102933Y-137968651D01*
X258121377Y-137965915D01*
X258140000Y-137965000D01*
X259010000Y-137965000D01*
X259028623Y-137965915D01*
X259028623Y-137965915D01*
G37*
D69*
X258575000Y-138345000D03*
D14*
G36*
X252878623Y-137965915D02*
X252897067Y-137968651D01*
X252915154Y-137973181D01*
X252932710Y-137979463D01*
X252949565Y-137987435D01*
X252965558Y-137997021D01*
X252980535Y-138008128D01*
X252994350Y-138020650D01*
X253006872Y-138034465D01*
X253017979Y-138049442D01*
X253027565Y-138065435D01*
X253035537Y-138082290D01*
X253041819Y-138099846D01*
X253046349Y-138117933D01*
X253049085Y-138136377D01*
X253050000Y-138155000D01*
X253050000Y-138535000D01*
X253049085Y-138553623D01*
X253046349Y-138572067D01*
X253041819Y-138590154D01*
X253035537Y-138607710D01*
X253027565Y-138624565D01*
X253017979Y-138640558D01*
X253006872Y-138655535D01*
X252994350Y-138669350D01*
X252980535Y-138681872D01*
X252965558Y-138692979D01*
X252949565Y-138702565D01*
X252932710Y-138710537D01*
X252915154Y-138716819D01*
X252897067Y-138721349D01*
X252878623Y-138724085D01*
X252860000Y-138725000D01*
X251990000Y-138725000D01*
X251971377Y-138724085D01*
X251952933Y-138721349D01*
X251934846Y-138716819D01*
X251917290Y-138710537D01*
X251900435Y-138702565D01*
X251884442Y-138692979D01*
X251869465Y-138681872D01*
X251855650Y-138669350D01*
X251843128Y-138655535D01*
X251832021Y-138640558D01*
X251822435Y-138624565D01*
X251814463Y-138607710D01*
X251808181Y-138590154D01*
X251803651Y-138572067D01*
X251800915Y-138553623D01*
X251800000Y-138535000D01*
X251800000Y-138155000D01*
X251800915Y-138136377D01*
X251803651Y-138117933D01*
X251808181Y-138099846D01*
X251814463Y-138082290D01*
X251822435Y-138065435D01*
X251832021Y-138049442D01*
X251843128Y-138034465D01*
X251855650Y-138020650D01*
X251869465Y-138008128D01*
X251884442Y-137997021D01*
X251900435Y-137987435D01*
X251917290Y-137979463D01*
X251934846Y-137973181D01*
X251952933Y-137968651D01*
X251971377Y-137965915D01*
X251990000Y-137965000D01*
X252860000Y-137965000D01*
X252878623Y-137965915D01*
X252878623Y-137965915D01*
G37*
D69*
X252425000Y-138345000D03*
G04 #@! TD*
M02*
