M48
;DRILL file {KiCad (5.0.1-53-g1ecfe45ab)} date Thu 07 Mar 2019 10:28:28 AM CET
;FORMAT={-:-/ absolute / inch / decimal}
FMAT,2
INCH,TZ
T1C0.0079
T2C0.0118
T3C0.0157
T4C0.0197
T5C0.0394
T6C0.0400
T7C0.0402
T8C0.0512
T9C0.0551
T10C0.0630
T11C0.0701
T12C0.1299
%
G90
G05
T1
X2.4724Y-1.1378
X3.1929Y-5.8945
X3.3366Y-1.8898
X3.3661Y-1.8898
X3.3957Y-1.8898
X3.4252Y-1.8898
X3.4547Y-1.8898
X3.4843Y-1.8898
X3.5118Y-1.8898
X3.5118Y-2.1614
X3.5118Y-2.189
X3.5118Y-2.2165
X3.5118Y-2.2441
X3.5138Y-4.9213
X3.5138Y-4.9508
X3.5138Y-4.9803
X3.5138Y-5.0098
X3.6772Y-1.4055
X3.8681Y-3.9764
X3.9409Y-5.8976
X3.9567Y-3.4941
X3.982Y-4.0686
X3.9862Y-3.9535
X3.9961Y-3.4055
X4.0157Y-2.8346
X4.0453Y-4.0256
X4.0748Y-2.7854
X4.1432Y-5.1428
X4.1437Y-4.6358
X4.1437Y-4.7146
X4.1437Y-5.0591
X4.1457Y-5.4843
X4.1535Y-2.0079
X4.1535Y-4.3504
X4.1654Y-1.8425
X4.1654Y-1.9606
X4.1654Y-2.378
X4.1654Y-2.6654
X4.1654Y-5.7126
X4.1693Y-1.5748
X4.1693Y-2.2638
X4.1929Y-2.0079
X4.1929Y-2.4016
X4.1929Y-2.6378
X4.1929Y-2.815
X4.1929Y-4.0551
X4.2115Y-2.3622
X4.2126Y-2.2343
X4.2323Y-2.0079
X4.2323Y-2.4016
X4.2323Y-2.6378
X4.2469Y-2.2343
X4.2815Y-3.7894
X4.2913Y-2.3228
X4.311Y-2.0079
X4.311Y-2.2343
X4.311Y-2.4114
X4.311Y-2.6378
X4.3228Y-2.3661
X4.3504Y-2.0079
X4.3504Y-2.2343
X4.3504Y-2.4114
X4.3504Y-2.6378
X4.3898Y-2.0079
X4.3898Y-2.2343
X4.3898Y-2.4114
X4.3898Y-2.6378
X4.4291Y-2.0079
X4.4291Y-2.2343
X4.4291Y-2.4114
X4.4291Y-2.6378
X4.4488Y-2.0374
X4.4488Y-2.0768
X4.4488Y-2.1161
X4.4488Y-2.1555
X4.4488Y-2.1949
X4.4488Y-2.4409
X4.4488Y-2.4803
X4.4488Y-2.5197
X4.4488Y-2.5591
X4.4488Y-2.5984
X4.4685Y-3.0217
X4.4685Y-3.0512
X4.4685Y-3.0807
X4.4685Y-3.1102
X4.4685Y-3.1398
X4.4685Y-3.1693
X4.5236Y-1.874
X4.5571Y-1.8799
X4.5574Y-1.9321
X4.5787Y-4.8386
X4.6024Y-2.3346
X4.6043Y-1.9882
X4.6063Y-1.7913
X4.6102Y-1.8819
X4.6142Y-1.6614
X4.6142Y-2.378
X4.6161Y-4.4193
X4.6161Y-4.4783
X4.626Y-4.3228
X4.6378Y-2.2913
X4.6417Y-4.704
X4.6457Y-5.7126
X4.6496Y-4.8418
X4.6535Y-1.2362
X4.6535Y-4.9921
X4.6654Y-3.0217
X4.6654Y-3.0512
X4.6654Y-3.0807
X4.6654Y-3.1102
X4.6654Y-3.1398
X4.6654Y-3.1693
X4.6811Y-2.2178
X4.685Y-4.4993
X4.7047Y-4.5522
X4.7209Y-2.1684
X4.7283Y-4.2835
X4.743Y-5.2789
X4.7441Y-1.998
X4.7463Y-1.8209
X4.7495Y-4.4159
X4.7539Y-1.8602
X4.7539Y-4.6161
X4.7539Y-5.1339
X4.7571Y-2.7697
X4.7602Y-4.4515
X4.7638Y-4.7146
X4.7638Y-1.7992
X4.7638Y-4.4772
X4.7638Y-4.5189
X4.7643Y-2.6569
X4.7835Y-2.5886
X4.7835Y-5.0945
X4.7835Y-5.2421
X4.7844Y-2.4617
X4.7885Y-2.7444
X4.8031Y-5.3307
X4.8268Y-5.4685
X4.8327Y-3.7795
X4.8327Y-3.8189
X4.8524Y-3.878
X4.8553Y-3.7106
X4.8779Y-5.4216
X4.8817Y-2.7858
X4.8819Y-2.4311
X4.8819Y-2.5886
X4.8939Y-5.0628
X4.9213Y-5.2323
X4.9705Y-2.5492
X4.9705Y-2.6083
X4.9705Y-2.6417
X4.9705Y-2.687
X4.9803Y-2.7461
X4.9902Y-3.2579
X5.Y-3.8091
X5.0098Y-2.7953
X5.0098Y-3.8976
X5.0197Y-3.248
X5.0197Y-5.065
X5.0295Y-2.4311
X5.0295Y-3.9272
X5.0394Y-3.8976
X5.0491Y-2.7481
X5.0492Y-5.1831
X5.0492Y-5.252
X5.0492Y-5.311
X5.0492Y-5.3799
X5.0492Y-5.4587
X5.1181Y-3.0512
X5.1299Y-5.7165
X5.1378Y-1.2362
X5.1518Y-4.8206
X5.1535Y-4.8334
X5.1575Y-1.8858
X5.1575Y-3.2382
X5.1583Y-4.4917
X5.1599Y-3.2085
X5.1621Y-4.6911
X5.1622Y-4.7236
X5.1709Y-2.7087
X5.1772Y-2.6181
X5.1772Y-5.252
X5.2067Y-3.0118
X5.2067Y-3.815
X5.2165Y-3.2185
X5.2323Y-4.6811
X5.252Y-1.7756
X5.252Y-1.8937
X5.252Y-4.5551
X5.252Y-4.7402
X5.255Y-5.1742
X5.2559Y-2.5492
X5.2559Y-2.5886
X5.2559Y-2.6476
X5.2559Y-2.687
X5.2559Y-2.7264
X5.2559Y-4.3583
X5.2559Y-4.4783
X5.2559Y-5.1142
X5.2559Y-5.252
X5.2559Y-5.2913
X5.2559Y-5.3307
X5.2639Y-2.5216
X5.2657Y-3.6516
X5.2657Y-3.9272
X5.2854Y-3.7813
X5.2953Y-3.0118
X5.2953Y-3.9173
X5.3051Y-2.1457
X5.3228Y-3.315
X5.3486Y-3.5733
X5.3489Y-3.6615
X5.3839Y-3.376
X5.3865Y-3.5731
X5.4035Y-3.4744
X5.4184Y-3.5766
X5.4227Y-3.359
X5.4409Y-1.9291
X5.4409Y-1.9685
X5.4409Y-2.0079
X5.45Y-2.2028
X5.4583Y-2.2311
X5.4685Y-4.7087
X5.4779Y-2.0486
X5.4819Y-2.0231
X5.4823Y-3.1496
X5.4823Y-3.1791
X5.4823Y-3.2087
X5.4823Y-3.2382
X5.4904Y-3.6614
X5.4904Y-3.75
X5.4904Y-3.8287
X5.4904Y-3.8484
X5.4904Y-3.8681
X5.4904Y-3.8878
X5.4921Y-1.9995
X5.4977Y-2.0651
X5.4988Y-2.0908
X5.5031Y-3.4252
X5.5108Y-3.3896
X5.5118Y-3.4941
X5.5276Y-4.9508
X5.5315Y-3.1496
X5.5315Y-3.1791
X5.5315Y-3.2087
X5.5315Y-3.2382
X5.5413Y-4.9016
X5.5638Y-3.6287
X5.5669Y-2.4213
X5.5709Y-2.313
X5.5752Y-5.2949
X5.5807Y-2.2736
X5.5866Y-1.3209
X5.5906Y-4.7087
X5.5949Y-4.9138
X5.5965Y-2.4429
X5.6024Y-2.3898
X5.6063Y-2.3583
X5.6107Y-4.7247
X5.6125Y-4.6755
X5.6142Y-4.776
X5.6145Y-4.7502
X5.6186Y-4.5394
X5.626Y-4.811
X5.6417Y-4.8937
X5.6443Y-1.6602
X5.6675Y-5.1853
X5.6693Y-1.5846
X5.6698Y-5.5327
X5.672Y-5.298
X5.676Y-1.6602
X5.6779Y-5.7531
X5.6782Y-4.6649
X5.687Y-1.637
X5.689Y-3.376
X5.6924Y-1.4928
X5.6926Y-5.1769
X5.6929Y-3.6917
X5.7008Y-1.5866
X5.7035Y-5.7339
X5.7047Y-2.9409
X5.7083Y-5.4283
X5.7087Y-3.1102
X5.7185Y-5.4018
X5.7244Y-1.628
X5.7257Y-5.448
X5.7323Y-2.4193
X5.7345Y-5.5955
X5.735Y-5.565
X5.7358Y-2.3334
X5.7362Y-2.3858
X5.7362Y-3.2953
X5.7362Y-2.3592
X5.7402Y-5.2485
X5.7404Y-2.3081
X5.748Y-2.2736
X5.7508Y-5.442
X5.752Y-1.5072
X5.7542Y-3.3827
X5.7548Y-3.6193
X5.7598Y-3.752
X5.7756Y-5.4488
X5.7795Y-3.378
X5.7795Y-3.6917
X5.7871Y-5.5312
X5.7918Y-3.8484
X5.7933Y-1.4947
X5.7972Y-1.5707
X5.8002Y-5.4409
X5.8031Y-3.3268
X5.8071Y-3.378
X5.8117Y-3.7284
X5.8181Y-5.1991
X5.8189Y-1.4291
X5.8201Y-5.1613
X5.831Y-3.3281
X5.8311Y-4.2425
X5.8389Y-5.2552
X5.8402Y-4.006
X5.8465Y-3.7205
X5.8469Y-1.4783
X5.8484Y-3.3701
X5.8583Y-3.6949
X5.8644Y-4.0149
X5.8646Y-4.1854
X5.8661Y-1.4862
X5.8696Y-4.2658
X5.8793Y-3.6945
X5.8813Y-4.0349
X5.8819Y-3.374
X5.8858Y-2.9567
X5.8858Y-3.1004
X5.8869Y-5.1874
X5.8955Y-3.4656
X5.8957Y-3.5335
X5.8957Y-3.4941
X5.8957Y-3.5728
X5.9022Y-4.0199
X5.9059Y-1.7033
X5.9113Y-1.6539
X5.9147Y-2.8525
X5.915Y-2.9146
X5.9154Y-3.7441
X5.9165Y-2.8819
X5.9169Y-3.7067
X5.9175Y-2.8269
X5.9213Y-5.4252
X5.9273Y-4.0141
X5.934Y-5.2842
X5.9359Y-4.0603
X5.9409Y-5.4016
X5.9449Y-5.3445
X5.9502Y-5.3042
X5.9553Y-4.0409
X5.9669Y-3.8567
X5.9724Y-1.6024
X5.974Y-1.5575
X5.9783Y-1.7323
X6.0039Y-3.6516
X6.0039Y-5.2165
X6.0184Y-3.0194
X6.0217Y-2.9933
X6.0252Y-4.5094
X6.0276Y-4.5472
X6.0296Y-3.6639
X6.0298Y-2.9659
X6.0319Y-3.7071
X6.0347Y-3.5276
X6.037Y-3.3921
X6.0385Y-3.3592
X6.039Y-3.4248
X6.0406Y-5.2384
X6.0512Y-4.5236
X6.0531Y-2.2933
X6.0531Y-2.0965
X6.0547Y-3.607
X6.0548Y-3.6586
X6.0549Y-3.6327
X6.0552Y-2.9703
X6.0555Y-3.3331
X6.0594Y-2.8724
X6.063Y-1.8799
X6.0639Y-5.2045
X6.0665Y-3.8209
X6.067Y-4.4832
X6.0728Y-2.3425
X6.0748Y-2.1339
X6.0906Y-2.6024
X6.0906Y-2.7598
X6.0906Y-5.248
X6.0937Y-2.9913
X6.0984Y-4.498
X6.0992Y-4.4643
X6.1024Y-2.8387
X6.1043Y-3.8744
X6.1082Y-3.8233
X6.1095Y-3.8492
X6.126Y-5.2047
X6.1343Y-2.7949
X6.1354Y-2.9695
X6.1476Y-3.7961
X6.1476Y-3.8858
X6.1494Y-3.5296
X6.1514Y-3.3766
X6.1516Y-3.1239
X6.1516Y-3.1496
X6.1516Y-3.2874
X6.1516Y-3.5701
X6.1516Y-5.2362
X6.1516Y-5.2953
X6.1523Y-3.7696
X6.1528Y-3.4024
X6.1531Y-3.5992
X6.1539Y-3.6873
X6.1575Y-3.3268
X6.1622Y-3.4587
X6.1681Y-3.5098
X6.1811Y-3.6358
X6.1835Y-2.7228
X6.1853Y-4.0553
X6.1996Y-2.968
X6.2039Y-3.7005
X6.2052Y-3.7272
X6.2175Y-2.8711
X6.218Y-2.9859
X6.2181Y-3.5657
X6.2205Y-3.1693
X6.2205Y-3.9409
X6.223Y-4.3319
X6.2278Y-2.7467
X6.2291Y-5.2541
X6.2301Y-3.7345
X6.2303Y-3.0807
X6.2402Y-3.3425
X6.2402Y-3.3819
X6.2408Y-5.4048
X6.2409Y-3.7945
X6.2419Y-4.3144
X6.2531Y-3.9332
X6.254Y-4.2839
X6.2598Y-3.0807
X6.2598Y-3.1693
X6.2607Y-1.748
X6.2686Y-5.2176
X6.2697Y-3.7303
X6.2717Y-5.3701
X6.2788Y-4.2908
X6.2889Y-3.7475
X6.2894Y-1.4449
X6.2992Y-3.0807
X6.2992Y-3.1693
X6.2992Y-3.9862
X6.3007Y-2.9841
X6.3051Y-4.2461
X6.3071Y-3.8268
X6.3189Y-3.7362
X6.3191Y-4.2234
X6.3319Y-3.5929
X6.3323Y-4.0193
X6.3373Y-4.2052
X6.3465Y-1.622
X6.3468Y-3.8111
X6.3504Y-1.5118
X6.3532Y-1.6469
X6.3602Y-3.6628
X6.3674Y-5.1765
X6.3681Y-5.4035
X6.3681Y-3.8287
X6.374Y-1.7047
X6.378Y-2.687
X6.3914Y-1.5735
X6.3937Y-5.4252
X6.3976Y-3.0807
X6.3976Y-3.1693
X6.3976Y-3.7402
X6.3976Y-3.8228
X6.437Y-4.3209
X6.4407Y-5.1537
X6.4469Y-3.0906
X6.4567Y-3.1693
X6.4724Y-3.3051
X6.4733Y-3.0879
X6.4756Y-4.2126
X6.4756Y-4.2383
X6.4803Y-1.5512
X6.4803Y-1.6988
X6.4823Y-1.6457
X6.4941Y-2.9911
X6.4961Y-3.1693
X6.4961Y-3.9641
X6.5059Y-4.2012
X6.5157Y-5.1535
X6.5217Y-4.3583
X6.5233Y-3.3107
X6.5256Y-3.0906
X6.5307Y-3.4181
X6.5539Y-3.0827
X6.5551Y-2.9429
X6.5551Y-3.1693
X6.5551Y-3.2677
X6.5551Y-5.0787
X6.562Y-4.088
X6.565Y-4.4948
X6.5748Y-2.9232
X6.5748Y-2.9823
X6.5768Y-4.0669
X6.5815Y-3.7874
X6.5897Y-3.831
X6.5906Y-1.5846
X6.5925Y-1.7854
X6.5937Y-3.0827
X6.5945Y-2.7067
X6.5945Y-2.7953
X6.5945Y-3.1693
X6.5984Y-4.5138
X6.6063Y-4.065
X6.6142Y-2.9823
X6.6142Y-3.8228
X6.645Y-3.952
X6.6513Y-3.9129
X6.6523Y-2.9626
X6.6614Y-2.7087
X6.6667Y-4.087
X6.6713Y-3.9291
X6.6732Y-3.3661
X6.6791Y-4.5354
X6.6791Y-4.5669
X6.689Y-1.7087
X6.6929Y-3.5945
X6.6967Y-3.6811
X6.7008Y-1.5846
X6.7165Y-1.6122
X6.7185Y-1.8346
X6.7224Y-3.248
X6.7224Y-3.6713
X6.7323Y-4.0748
X6.7382Y-4.0461
X6.7421Y-4.0205
X6.748Y-3.3976
X6.752Y-2.7244
X6.7571Y-2.7496
X6.7579Y-1.6555
X6.7697Y-3.0709
X6.772Y-3.1709
X6.7874Y-3.7437
X6.7877Y-3.8241
X6.7882Y-2.7665
X6.7896Y-3.7985
X6.7992Y-1.4823
X6.8075Y-4.0417
X6.8082Y-1.7559
X6.811Y-3.1791
X6.811Y-3.2185
X6.811Y-3.2579
X6.811Y-3.3661
X6.811Y-3.5669
X6.811Y-5.4567
X6.8256Y-3.8272
X6.8307Y-4.0866
X6.8331Y-4.0599
X6.8386Y-3.4961
X6.839Y-3.1417
X6.8431Y-3.7427
X6.8508Y-3.8324
X6.8821Y-3.5916
X6.8839Y-4.378
X6.8843Y-3.7347
X6.8898Y-3.4252
X6.8898Y-3.9764
X6.8937Y-3.9488
X6.8969Y-3.5608
X6.8976Y-3.3071
X6.8976Y-3.5236
X6.8986Y-3.3955
X6.8995Y-3.2541
X6.8996Y-3.1988
X6.8996Y-3.1102
X6.8996Y-3.2283
X6.8996Y-3.3661
X6.8996Y-3.7992
X6.8996Y-3.2814
X6.9055Y-4.0217
X6.9075Y-2.6201
X6.9114Y-4.3327
X6.9114Y-4.7461
X6.9134Y-3.8307
X6.9177Y-2.5945
X6.9244Y-3.0472
X6.939Y-4.872
X6.9685Y-4.9311
X6.9705Y-3.8661
X6.9882Y-2.7165
X6.9921Y-2.687
X6.993Y-3.2879
X6.998Y-4.8819
X7.0019Y-3.9481
X7.0079Y-3.9063
X7.0118Y-3.5945
X7.0236Y-3.3346
X7.0276Y-1.4764
X7.0276Y-3.7992
X7.0297Y-2.4415
X7.0305Y-3.2675
X7.0354Y-4.0197
X7.0373Y-3.6609
X7.0374Y-1.5059
X7.0433Y-4.2165
X7.0442Y-3.6857
X7.0472Y-1.5453
X7.0483Y-3.5048
X7.052Y-1.6913
X7.0531Y-3.6398
X7.0563Y-3.4803
X7.0566Y-3.1785
X7.063Y-4.1969
X7.0669Y-2.185
X7.0687Y-3.7055
X7.073Y-3.1299
X7.0827Y-3.2715
X7.086Y-1.7329
X7.0866Y-3.6189
X7.0866Y-4.3799
X7.0885Y-3.2074
X7.098Y-3.2507
X7.1056Y-2.4921
X7.1063Y-2.1358
X7.1063Y-3.6398
X7.1063Y-4.2913
X7.1102Y-2.3622
X7.1151Y-2.6859
X7.1358Y-4.2913
X7.1358Y-4.3799
X7.1359Y-2.4902
X7.1399Y-2.3622
X7.1476Y-3.5177
X7.1483Y-3.2092
X7.1496Y-3.1811
X7.1496Y-3.5591
X7.1522Y-3.4556
X7.1535Y-3.3944
X7.1555Y-3.278
X7.1614Y-3.122
X7.1665Y-3.2527
X7.1693Y-3.9823
X7.185Y-4.3799
X7.1941Y-3.8378
X7.1949Y-3.9173
X7.1973Y-3.9589
X7.198Y-3.6988
X7.2047Y-4.3602
X7.2165Y-1.6535
X7.2177Y-3.7154
X7.2244Y-3.4567
X7.2276Y-3.3937
X7.2421Y-3.7756
X7.2441Y-1.3976
X7.248Y-3.4134
X7.2589Y-3.3573
X7.2638Y-4.9902
X7.2807Y-3.4882
X7.2807Y-3.5342
X7.2913Y-2.5827
X7.2992Y-1.4488
X7.315Y-1.4063
X7.3425Y-3.3504
X7.3524Y-1.7717
X7.4252Y-3.5189
X7.4587Y-1.5276
X7.5913Y-1.5776
X7.5945Y-1.8493
X7.6378Y-1.6594
X7.6535Y-1.4626
X7.6685Y-1.7594
X7.6791Y-1.7224
X7.6969Y-1.624
X7.7165Y-4.7638
X7.737Y-4.4213
X7.7595Y-4.3989
X7.7953Y-4.8819
X7.8071Y-4.3799
X7.8091Y-1.5236
X7.813Y-1.7224
X7.815Y-4.7441
X7.8642Y-4.3898
X7.8661Y-4.748
X7.9094Y-1.6024
X7.9094Y-1.7992
X7.9134Y-4.3898
X7.9134Y-4.748
X7.9528Y-5.2854
X7.9646Y-4.748
X7.9648Y-4.3898
X8.0217Y-2.5314
X8.0236Y-1.6614
X8.0315Y-1.7244
X8.0354Y-1.6218
X8.0472Y-1.4685
X8.0472Y-1.8493
X8.0906Y-2.4606
X8.0906Y-2.5787
X8.1339Y-1.7677
X8.1417Y-1.5591
X8.1575Y-2.4744
X8.1594Y-2.5984
X8.1594Y-2.6378
X8.1791Y-2.7657
X8.189Y-1.8307
X8.2147Y-1.8307
X8.2382Y-2.5394
X8.2382Y-2.6181
X8.2382Y-2.7953
X8.3346Y-1.6614
X8.3465Y-2.5295
X8.3465Y-2.6142
X8.3898Y-2.3346
X8.4173Y-2.2756
X8.4252Y-2.7756
X8.4547Y-2.9724
X8.4764Y-2.7992
X8.4803Y-2.9134
X8.4885Y-2.4418
X8.4989Y-2.3228
X8.4989Y-2.3427
X8.5157Y-2.4449
X8.5276Y-2.2756
X8.5335Y-2.8937
X8.5748Y-2.4409
X8.5827Y-2.2756
X8.5925Y-2.8051
X8.5984Y-2.2047
X8.6032Y-2.3249
X8.6122Y-2.9724
X8.6149Y-2.3502
X8.6516Y-2.9724
X8.68Y-2.9229
X8.6859Y-1.712
X8.6909Y-1.8012
X8.6909Y-2.7756
X8.7165Y-3.2756
X8.7304Y-2.8839
X8.7795Y-2.8839
X8.7954Y-2.626
X8.7992Y-2.252
X8.7992Y-2.5945
X8.8031Y-2.7362
X8.8071Y-2.4752
X8.8164Y-2.5721
X8.8268Y-2.8819
X8.8307Y-3.0984
X8.8386Y-3.2756
X8.8484Y-2.8346
X8.8638Y-2.4453
X8.878Y-2.8858
X8.878Y-3.2756
X8.8858Y-2.3661
X8.8898Y-2.5906
X8.9016Y-2.7008
X8.9331Y-2.9213
X8.9359Y-2.4843
X8.937Y-2.4055
X8.937Y-2.7283
X8.9396Y-2.6548
X8.9409Y-2.3268
X8.9435Y-2.6083
X8.9449Y-3.2402
X8.9458Y-2.8337
X9.0157Y-2.9606
X9.0157Y-3.0394
X9.0827Y-2.5315
X9.0827Y-2.6142
X9.0827Y-2.6535
X9.0827Y-2.7323
X9.0827Y-2.7677
X9.0866Y-2.4055
X9.0866Y-2.4882
X9.0866Y-2.8465
X9.1807Y-1.4449
X9.1929Y-1.8269
X9.2559Y-1.6496
X9.2598Y-2.8583
X9.2756Y-2.3071
X9.2874Y-1.8269
X9.2953Y-1.4488
X9.3209Y-1.8012
X9.3406Y-4.124
X9.3418Y-4.3898
X9.3421Y-4.6752
X9.3701Y-4.3307
X9.3701Y-4.6161
X9.4207Y-1.4531
X9.4291Y-4.9213
X9.4292Y-4.9592
X9.4331Y-1.8269
X9.437Y-4.9843
X9.4783Y-4.3602
X9.4783Y-4.6358
X9.4882Y-3.9921
X9.4882Y-4.0846
X9.4921Y-1.6496
X9.4961Y-1.5867
X9.5079Y-3.9469
X9.5135Y-3.8526
X9.522Y-4.8961
X9.5276Y-4.8327
X9.5311Y-3.9138
X9.5374Y-3.9469
X9.5391Y-4.9398
X9.5533Y-4.8338
X9.5591Y-1.6772
X9.5768Y-5.1181
X9.6024Y-1.4409
X9.6614Y-1.3976
X9.6654Y-1.7913
X9.6693Y-1.4409
X9.685Y-1.5354
X9.685Y-1.7717
X9.6949Y-4.311
X9.6949Y-4.8228
X9.7047Y-4.0354
X9.7146Y-4.2224
X9.7146Y-4.498
X9.7146Y-4.7736
X9.7343Y-4.9311
X9.7343Y-5.0098
X9.7441Y-4.9803
X9.7539Y-5.128
X9.7638Y-4.1142
X9.7736Y-4.1929
X9.7736Y-4.7441
X9.7835Y-3.7106
X9.7835Y-4.4685
X9.8228Y-4.3898
X9.8307Y-3.815
X9.8327Y-4.6654
X9.8957Y-5.498
X9.8957Y-5.5945
X9.8976Y-5.4449
X9.8976Y-5.5512
X9.9114Y-3.8091
X9.9606Y-3.7205
X10.0492Y-3.8091
X10.0591Y-3.6417
X10.0709Y-3.5079
X10.1083Y-3.5138
X10.1181Y-3.878
X10.1673Y-3.6417
X10.1673Y-3.7402
X3.4783Y-4.3268
X3.4783Y-4.3563
X3.4783Y-4.3858
X3.4783Y-4.4154
X3.6063Y-4.3268
X3.6063Y-4.3563
X3.6063Y-4.3858
X3.6063Y-4.4154
X3.7244Y-4.3268
X3.7244Y-4.3563
X3.7244Y-4.3858
X3.7244Y-4.4154
X3.7244Y-4.4843
X3.7244Y-4.5138
X3.7244Y-4.5433
X3.7244Y-4.5728
X3.7244Y-4.6024
X3.7835Y-4.6122
X3.813Y-4.6122
X3.8425Y-4.6122
X3.872Y-4.6122
X3.9016Y-4.6122
X3.9409Y-4.3563
X3.9409Y-4.3858
X3.9409Y-4.4154
X3.9409Y-4.4843
X3.9409Y-4.5138
X3.9409Y-4.5433
X3.9409Y-4.5728
X4.0039Y-4.3012
X4.0039Y-4.3583
X4.0039Y-4.4173
X4.0098Y-4.5236
X4.0787Y-4.4154
X4.0787Y-4.4449
X4.0787Y-4.4941
X4.0787Y-4.5236
X6.312Y-5.2909
X6.3513Y-5.2515
X6.3513Y-5.2909
X6.3513Y-5.3302
X6.3907Y-5.2909
X5.8031Y-1.6378
X5.8465Y-1.5945
X5.8465Y-1.6811
X5.8898Y-1.6378
X3.4783Y-1.9921
X3.4783Y-2.0216
X3.4783Y-2.0512
X3.4783Y-2.0807
X3.6063Y-1.9921
X3.6063Y-2.0216
X3.6063Y-2.0512
X3.6063Y-2.0807
X3.7244Y-1.9921
X3.7244Y-2.0216
X3.7244Y-2.0512
X3.7244Y-2.0807
X3.7244Y-2.1496
X3.7244Y-2.1791
X3.7244Y-2.2087
X3.7244Y-2.2382
X3.7244Y-2.2677
X3.7835Y-2.2776
X3.813Y-2.2776
X3.8425Y-2.2776
X3.872Y-2.2776
X3.9016Y-2.2776
X3.9409Y-2.0216
X3.9409Y-2.0512
X3.9409Y-2.0807
X3.9409Y-2.1496
X3.9409Y-2.1791
X3.9409Y-2.2087
X3.9409Y-2.2382
X4.0039Y-1.9665
X4.0039Y-2.0236
X4.0039Y-2.0827
X4.0098Y-2.189
X4.0787Y-2.0807
X4.0787Y-2.1102
X4.0787Y-2.1594
X4.0787Y-2.189
X4.Y-3.7579
X4.Y-3.9154
X4.0394Y-3.7579
X4.0394Y-3.9154
X4.0787Y-3.7579
X4.0787Y-3.9154
X8.4075Y-2.5039
X8.4075Y-2.5827
X8.4075Y-2.6614
X8.4075Y-2.7402
X8.4862Y-2.5039
X8.4862Y-2.7402
X8.565Y-2.5039
X8.565Y-2.7402
X8.6437Y-2.5039
X8.6437Y-2.5827
X8.6437Y-2.6614
X8.6437Y-2.7402
X4.8805Y-4.428
X4.8805Y-4.479
X4.8805Y-4.53
X4.8805Y-4.581
X4.8805Y-4.632
X4.8805Y-4.683
X4.8805Y-4.734
X4.8805Y-4.785
X4.8805Y-4.836
X4.8805Y-4.887
X4.8805Y-4.938
X4.9315Y-4.428
X4.9315Y-4.479
X4.9315Y-4.53
X4.9315Y-4.581
X4.9315Y-4.632
X4.9315Y-4.683
X4.9315Y-4.734
X4.9315Y-4.785
X4.9315Y-4.836
X4.9315Y-4.887
X4.9315Y-4.938
X4.9825Y-4.428
X4.9825Y-4.479
X4.9825Y-4.53
X4.9825Y-4.581
X4.9825Y-4.632
X4.9825Y-4.683
X4.9825Y-4.734
X4.9825Y-4.785
X4.9825Y-4.836
X4.9825Y-4.887
X4.9825Y-4.938
X5.0335Y-4.428
X5.0335Y-4.479
X5.0335Y-4.53
X5.0335Y-4.581
X5.0335Y-4.632
X5.0335Y-4.683
X5.0335Y-4.734
X5.0335Y-4.785
X5.0335Y-4.836
X5.0335Y-4.887
X5.0335Y-4.938
X5.765Y-5.3133
X5.8083Y-5.27
X5.8083Y-5.3566
X5.8516Y-5.3133
X4.8805Y-1.8144
X4.8805Y-1.8654
X4.8805Y-1.9164
X4.8805Y-1.9674
X4.8805Y-2.0184
X4.8805Y-2.0694
X4.8805Y-2.1204
X4.8805Y-2.1714
X4.8805Y-2.2224
X4.8805Y-2.2734
X4.8805Y-2.3244
X4.9315Y-1.8144
X4.9315Y-1.8654
X4.9315Y-1.9164
X4.9315Y-1.9674
X4.9315Y-2.0184
X4.9315Y-2.0694
X4.9315Y-2.1204
X4.9315Y-2.1714
X4.9315Y-2.2224
X4.9315Y-2.2734
X4.9315Y-2.3244
X4.9825Y-1.8144
X4.9825Y-1.8654
X4.9825Y-1.9164
X4.9825Y-1.9674
X4.9825Y-2.0184
X4.9825Y-2.0694
X4.9825Y-2.1204
X4.9825Y-2.1714
X4.9825Y-2.2224
X4.9825Y-2.2734
X4.9825Y-2.3244
X5.0335Y-1.8144
X5.0335Y-1.8654
X5.0335Y-1.9164
X5.0335Y-1.9674
X5.0335Y-2.0184
X5.0335Y-2.0694
X5.0335Y-2.1204
X5.0335Y-2.1714
X5.0335Y-2.2224
X5.0335Y-2.2734
X5.0335Y-2.3244
X5.0551Y-3.1575
X5.0551Y-3.2362
X5.1102Y-3.2362
X5.1106Y-3.1575
X3.4783Y-4.7343
X3.4783Y-4.7638
X3.4783Y-4.7933
X3.4783Y-4.8228
X3.6063Y-4.7343
X3.6063Y-4.7638
X3.6063Y-4.7933
X3.6063Y-4.8228
X3.7244Y-4.7343
X3.7244Y-4.7638
X3.7244Y-4.7933
X3.7244Y-4.8228
X3.7244Y-4.8917
X3.7244Y-4.9213
X3.7244Y-4.9508
X3.7244Y-4.9803
X3.7244Y-5.0098
X3.7835Y-5.0197
X3.813Y-5.0197
X3.8425Y-5.0197
X3.872Y-5.0197
X3.9016Y-5.0197
X3.9409Y-4.7638
X3.9409Y-4.7933
X3.9409Y-4.8228
X3.9409Y-4.8917
X3.9409Y-4.9213
X3.9409Y-4.9508
X3.9409Y-4.9803
X4.0039Y-4.7087
X4.0039Y-4.7657
X4.0039Y-4.8248
X4.0098Y-4.9311
X4.0787Y-4.8228
X4.0787Y-4.8524
X4.0787Y-4.9016
X4.0787Y-4.9311
X3.4783Y-2.3917
X3.4783Y-2.4213
X3.4783Y-2.4508
X3.4783Y-2.4803
X3.6063Y-2.3917
X3.6063Y-2.4213
X3.6063Y-2.4508
X3.6063Y-2.4803
X3.7244Y-2.3917
X3.7244Y-2.4213
X3.7244Y-2.4508
X3.7244Y-2.4803
X3.7244Y-2.5492
X3.7244Y-2.5787
X3.7244Y-2.6083
X3.7244Y-2.6378
X3.7244Y-2.6673
X3.7835Y-2.6772
X3.813Y-2.6772
X3.8425Y-2.6772
X3.872Y-2.6772
X3.9016Y-2.6772
X3.9409Y-2.4213
X3.9409Y-2.4508
X3.9409Y-2.4803
X3.9409Y-2.5492
X3.9409Y-2.5787
X3.9409Y-2.6083
X3.9409Y-2.6378
X4.0039Y-2.3661
X4.0039Y-2.4232
X4.0039Y-2.4823
X4.0098Y-2.5886
X4.0787Y-2.4803
X4.0787Y-2.5098
X4.0787Y-2.5591
X4.0787Y-2.5886
X3.4783Y-5.1378
X3.4783Y-5.1673
X3.4783Y-5.1969
X3.4783Y-5.2264
X3.6063Y-5.1378
X3.6063Y-5.1673
X3.6063Y-5.1969
X3.6063Y-5.2264
X3.7244Y-5.1378
X3.7244Y-5.1673
X3.7244Y-5.1969
X3.7244Y-5.2264
X3.7244Y-5.2953
X3.7244Y-5.3248
X3.7244Y-5.3543
X3.7244Y-5.3839
X3.7244Y-5.4134
X3.7835Y-5.4232
X3.813Y-5.4232
X3.8425Y-5.4232
X3.872Y-5.4232
X3.9016Y-5.4232
X3.9409Y-5.1673
X3.9409Y-5.1969
X3.9409Y-5.2264
X3.9409Y-5.2953
X3.9409Y-5.3248
X3.9409Y-5.3543
X3.9409Y-5.3839
X4.0039Y-5.1122
X4.0039Y-5.1693
X4.0039Y-5.2283
X4.0098Y-5.3346
X4.0787Y-5.2264
X4.0787Y-5.2559
X4.0787Y-5.3051
X4.0787Y-5.3346
X3.4783Y-1.5886
X3.4783Y-1.6181
X3.4783Y-1.6476
X3.4783Y-1.6772
X3.6063Y-1.5886
X3.6063Y-1.6181
X3.6063Y-1.6476
X3.6063Y-1.6772
X3.7244Y-1.5886
X3.7244Y-1.6181
X3.7244Y-1.6476
X3.7244Y-1.6772
X3.7244Y-1.7461
X3.7244Y-1.7756
X3.7244Y-1.8051
X3.7244Y-1.8346
X3.7244Y-1.8642
X3.7835Y-1.874
X3.813Y-1.874
X3.8425Y-1.874
X3.872Y-1.874
X3.9016Y-1.874
X3.9409Y-1.6181
X3.9409Y-1.6476
X3.9409Y-1.6772
X3.9409Y-1.7461
X3.9409Y-1.7756
X3.9409Y-1.8051
X3.9409Y-1.8346
X4.0039Y-1.563
X4.0039Y-1.6201
X4.0039Y-1.6791
X4.0098Y-1.7854
X4.0787Y-1.6772
X4.0787Y-1.7067
X4.0787Y-1.7559
X4.0787Y-1.7854
T2
X8.8701Y-1.3736
X8.8701Y-1.4524
X8.8701Y-1.5311
X8.8701Y-1.6098
X8.8701Y-1.7083
X8.8701Y-1.787
X8.8701Y-1.8657
X8.8701Y-1.9248
X9.0669Y-1.9248
X9.1457Y-1.9248
X9.2244Y-1.9248
X9.3031Y-1.9248
X9.3819Y-1.9248
X9.4606Y-1.9248
X9.5394Y-1.9248
X9.6181Y-1.9248
X9.6969Y-1.9248
X9.7756Y-1.9248
X9.8543Y-1.9248
X9.9331Y-1.9248
X10.0118Y-1.9248
X10.0906Y-1.9248
X10.1693Y-1.9248
X10.248Y-1.9248
X5.7567Y-1.3724
X5.9142Y-1.3724
X6.111Y-1.3724
X6.111Y-1.5693
X6.111Y-1.7661
X6.111Y-1.9236
X6.2685Y-1.9236
X6.426Y-1.9236
X6.5835Y-1.9236
X6.7409Y-1.9236
X6.8984Y-1.9236
X7.0559Y-1.9236
X7.3709Y-1.9236
X7.5283Y-1.9236
X7.6858Y-1.9236
X7.8433Y-1.9236
X8.0008Y-1.9236
X8.1583Y-1.9236
X8.3157Y-1.9236
X8.4732Y-1.9236
X8.6307Y-1.9236
X8.8276Y-1.3724
X8.8276Y-1.4906
X8.8276Y-1.6087
X8.8276Y-1.7661
X8.8276Y-1.9236
X1.8307Y-1.4173
X1.8307Y-1.4764
X1.8307Y-1.5551
X1.8307Y-1.6339
X1.8307Y-1.7126
X1.8307Y-1.7913
X1.8307Y-1.8701
X1.8307Y-1.9488
X1.8307Y-2.0276
X1.8307Y-2.1063
X1.8307Y-2.185
X1.8307Y-2.2638
X1.8307Y-2.3425
X1.8307Y-2.4213
X1.8307Y-2.5
X1.8307Y-2.5787
X1.8307Y-2.6575
X1.8307Y-2.7362
X1.8307Y-2.815
X1.8307Y-2.874
X1.9882Y-1.4173
X1.9882Y-2.874
X2.1457Y-1.4173
X2.1457Y-2.874
X2.3031Y-1.4173
X2.3031Y-2.874
X2.4606Y-1.4173
X2.4606Y-2.874
X2.6181Y-1.4173
X2.6181Y-2.874
X2.7756Y-1.4173
X2.7756Y-2.874
X2.9331Y-1.4173
X2.9331Y-2.874
X3.0906Y-1.4173
X3.0906Y-2.874
X3.248Y-1.4173
X3.248Y-2.874
X4.0354Y-1.4173
X4.0354Y-2.874
X4.1929Y-1.4173
X4.1929Y-2.874
X4.3504Y-1.4173
X4.3504Y-2.874
X4.5079Y-1.4173
X4.5079Y-2.874
X4.6654Y-1.4173
X4.6654Y-2.874
X4.8228Y-1.4173
X4.8228Y-2.874
X4.9803Y-1.4173
X4.9803Y-2.874
X5.1378Y-1.4173
X5.1378Y-2.874
X5.2953Y-1.4173
X5.2953Y-2.874
X5.4528Y-1.4173
X5.4528Y-2.874
X5.5709Y-1.4173
X5.5709Y-1.4764
X5.5709Y-1.5551
X5.5709Y-1.6339
X5.5709Y-1.7126
X5.5709Y-1.7913
X5.5709Y-2.5
X5.5709Y-2.5787
X5.5709Y-2.6575
X5.5709Y-2.7362
X5.5709Y-2.815
X5.5709Y-2.874
X1.8307Y-4.1634
X1.8307Y-4.2224
X1.8307Y-4.3012
X1.8307Y-4.3799
X1.8307Y-4.4587
X1.8307Y-4.5374
X1.8307Y-4.6161
X1.8307Y-4.6949
X1.8307Y-4.7736
X1.8307Y-4.8524
X1.8307Y-4.9311
X1.8307Y-5.0098
X1.8307Y-5.0886
X1.8307Y-5.1673
X1.8307Y-5.2461
X1.8307Y-5.3248
X1.8307Y-5.4035
X1.8307Y-5.4823
X1.8307Y-5.561
X1.8307Y-5.6201
X1.9882Y-4.1634
X1.9882Y-5.6201
X2.1457Y-4.1634
X2.1457Y-5.6201
X2.3031Y-4.1634
X2.3031Y-5.6201
X2.4606Y-4.1634
X2.4606Y-5.6201
X2.6181Y-4.1634
X2.6181Y-5.6201
X2.7756Y-4.1634
X2.7756Y-5.6201
X2.9331Y-4.1634
X2.9331Y-5.6201
X3.0906Y-4.1634
X3.0906Y-5.6201
X3.248Y-4.1634
X3.248Y-5.6201
X4.0354Y-4.1634
X4.0354Y-5.6201
X4.1929Y-4.1634
X4.1929Y-5.6201
X4.3504Y-4.1634
X4.3504Y-5.6201
X4.5079Y-4.1634
X4.5079Y-5.6201
X4.6654Y-4.1634
X4.6654Y-5.6201
X4.8228Y-4.1634
X4.8228Y-5.6201
X4.9803Y-4.1634
X4.9803Y-5.6201
X5.1378Y-4.1634
X5.1378Y-5.6201
X5.2953Y-4.1634
X5.2953Y-5.6201
X5.4528Y-4.1634
X5.4528Y-5.6201
X5.5709Y-4.1634
X5.5709Y-4.2224
X5.5709Y-4.3012
X5.5709Y-4.3799
X5.5709Y-4.4587
X5.5709Y-4.5374
X5.5709Y-5.2461
X5.5709Y-5.3248
X5.5709Y-5.4035
X5.5709Y-5.4823
X5.5709Y-5.561
X5.5709Y-5.6201
X1.8307Y-2.9232
X1.8307Y-3.0413
X1.8307Y-3.1988
X1.8307Y-3.3563
X1.8307Y-3.5138
X1.8307Y-3.6713
X1.8307Y-3.8287
X1.8307Y-3.9862
X1.8307Y-4.1043
X1.9882Y-2.9232
X1.9882Y-4.1043
X2.1457Y-2.9232
X2.1457Y-4.1043
X2.3031Y-2.9232
X2.3031Y-4.1043
X2.4606Y-2.9232
X2.4606Y-4.1043
X2.6181Y-2.9232
X2.6181Y-4.1043
X2.7756Y-2.9232
X2.7756Y-4.1043
X2.9331Y-2.9232
X2.9331Y-4.1043
X3.0906Y-2.9232
X3.0906Y-4.1043
X3.248Y-2.9232
X3.248Y-4.1043
X4.0354Y-2.9232
X4.0354Y-4.1043
X4.1929Y-2.9232
X4.1929Y-4.1043
X4.3504Y-2.9232
X4.3504Y-4.1043
X4.5079Y-2.9232
X4.5079Y-4.1043
X4.6654Y-2.9232
X4.6654Y-4.1043
X4.8228Y-2.9232
X4.8228Y-4.1043
X4.9803Y-2.9232
X4.9803Y-4.1043
X5.1378Y-2.9232
X5.1378Y-4.1043
X5.2953Y-2.9232
X5.2953Y-4.1043
X5.4528Y-2.9232
X5.4528Y-4.1043
X5.5709Y-2.9232
X5.5709Y-3.0413
X5.5709Y-3.1988
X5.5709Y-3.2972
X5.5709Y-3.7303
X5.5709Y-3.8287
X5.5709Y-3.9862
X5.5709Y-4.1043
T3
X1.9685Y-1.5748
X1.9685Y-1.7717
X1.9685Y-1.9685
X1.9685Y-2.1654
X1.9685Y-2.3622
X1.9685Y-2.5591
X1.9685Y-2.7559
X1.9685Y-2.9921
X1.9685Y-3.0709
X1.9685Y-3.248
X1.9685Y-3.3465
X1.9685Y-3.4449
X1.9685Y-3.6417
X1.9685Y-3.8386
X1.9685Y-4.0354
X1.9685Y-4.2323
X1.9685Y-4.4291
X1.9685Y-4.626
X1.9685Y-4.8228
X1.9685Y-5.0197
X1.9685Y-5.2165
X1.9685Y-5.4134
X2.0472Y-2.9921
X2.0472Y-3.0709
X2.0669Y-3.248
X2.0669Y-3.3465
X2.0669Y-3.937
X2.0669Y-4.3307
X2.0669Y-4.5276
X2.0669Y-4.7244
X2.0669Y-4.9213
X2.0669Y-5.1181
X2.0669Y-5.315
X2.0669Y-5.5118
X2.1654Y-1.5748
X2.1654Y-1.7717
X2.1654Y-1.9685
X2.1654Y-2.1654
X2.1654Y-2.3622
X2.1654Y-2.5591
X2.1654Y-2.7559
X2.1654Y-3.248
X2.1654Y-3.3465
X2.1654Y-3.4449
X2.1654Y-3.6417
X2.1654Y-3.8386
X2.1654Y-4.0354
X2.1654Y-4.2323
X2.1654Y-4.4291
X2.1654Y-4.626
X2.1654Y-4.8228
X2.1654Y-5.0197
X2.1654Y-5.2165
X2.1654Y-5.4134
X2.2047Y-2.9921
X2.2047Y-3.0315
X2.2638Y-3.1496
X2.2638Y-3.248
X2.2638Y-3.3465
X2.2638Y-3.937
X2.2638Y-4.3307
X2.2638Y-4.5276
X2.2638Y-4.7244
X2.2638Y-4.9213
X2.2638Y-5.1181
X2.2638Y-5.315
X2.2638Y-5.5118
X2.3228Y-2.9921
X2.3228Y-3.0315
X2.3622Y-1.7717
X2.3622Y-1.9685
X2.3622Y-2.1654
X2.3622Y-2.3622
X2.3622Y-2.5591
X2.3622Y-3.1496
X2.3622Y-3.248
X2.3622Y-3.3465
X2.3622Y-3.4449
X2.3622Y-3.6417
X2.3622Y-3.8386
X2.3622Y-4.0354
X2.3622Y-4.4291
X2.3622Y-4.626
X2.3622Y-4.8228
X2.3622Y-5.0197
X2.3622Y-5.2165
X2.4409Y-2.9921
X2.4409Y-3.0315
X2.4606Y-3.1496
X2.4606Y-3.248
X2.4606Y-3.3465
X2.4606Y-5.315
X2.5492Y-3.3563
X2.5591Y-1.5748
X2.5591Y-1.9685
X2.5591Y-2.7559
X2.5591Y-2.9921
X2.5591Y-3.0315
X2.5591Y-3.4449
X2.5591Y-4.0354
X2.5591Y-4.2323
X2.5591Y-4.4291
X2.5591Y-5.4134
X2.6378Y-3.3366
X2.6575Y-3.1102
X2.6575Y-3.1988
X2.6575Y-4.3307
X2.6575Y-5.5118
X2.6772Y-2.9921
X2.6772Y-3.0315
X2.7067Y-3.1496
X2.7559Y-1.5748
X2.7559Y-2.7559
X2.7559Y-3.1102
X2.7559Y-3.1988
X2.7559Y-3.3366
X2.7559Y-3.4449
X2.7559Y-3.6417
X2.7559Y-4.0354
X2.7559Y-4.2323
X2.7559Y-4.4291
X2.7559Y-5.4134
X2.7953Y-2.9921
X2.7953Y-3.0315
X2.8051Y-3.1496
X2.8543Y-4.3307
X2.8543Y-5.315
X2.8543Y-5.5118
X2.8642Y-3.3563
X2.9134Y-2.9921
X2.9134Y-3.0315
X2.9528Y-1.5748
X2.9528Y-1.9685
X2.9528Y-2.5591
X2.9528Y-2.7559
X2.9528Y-3.4449
X2.9528Y-3.6417
X2.9528Y-3.937
X2.9528Y-4.0354
X2.9528Y-4.2323
X2.9528Y-4.4291
X2.9528Y-5.0197
X2.9528Y-5.4134
X2.9921Y-3.2382
X3.0512Y-3.1496
X3.0512Y-3.3465
X3.0512Y-4.3307
X3.0512Y-4.7244
X3.0512Y-4.9213
X3.0512Y-5.1181
X3.0522Y-2.9921
X3.0906Y-4.5079
X3.0906Y-4.5669
X3.0906Y-4.626
X3.1299Y-5.315
X3.1299Y-5.4331
X3.1299Y-5.5512
X3.1496Y-1.5748
X3.1496Y-1.9685
X3.1496Y-2.1654
X3.1496Y-2.3622
X3.1496Y-2.6772
X3.1496Y-2.7953
X3.1496Y-2.9921
X3.1496Y-3.0315
X3.1496Y-3.2283
X3.1496Y-3.4449
X3.1496Y-3.6417
X3.1496Y-3.8386
X3.1496Y-3.937
X3.1496Y-4.0354
X3.1496Y-4.2323
X3.1496Y-4.4291
X3.1496Y-4.626
X3.1496Y-4.8228
X3.1496Y-5.0197
X3.1496Y-5.2165
X3.189Y-5.4921
X3.2087Y-4.626
X3.2283Y-2.9921
X3.2283Y-3.0315
X3.248Y-3.1496
X3.248Y-3.3465
X3.248Y-4.3307
X3.248Y-4.7244
X3.248Y-4.9213
X3.248Y-5.1181
X3.248Y-5.4331
X3.248Y-5.5512
X3.2677Y-4.5079
X3.2677Y-4.5669
X3.2677Y-4.626
X3.3071Y-2.9921
X3.3071Y-3.0512
X3.3071Y-3.1102
X3.3071Y-3.1693
X3.3071Y-3.2283
X3.3071Y-3.2874
X3.3071Y-3.3465
X3.3071Y-3.4055
X3.3071Y-5.4921
X3.3268Y-4.626
X3.3465Y-1.5748
X3.3465Y-1.9685
X3.3465Y-2.1654
X3.3465Y-2.3622
X3.3465Y-2.7953
X3.3465Y-4.2323
X3.3465Y-4.4291
X3.3465Y-4.8228
X3.3465Y-5.0197
X3.3465Y-5.2165
X3.3661Y-2.9724
X3.3661Y-3.4449
X3.3661Y-5.4331
X3.3661Y-5.5512
X3.3858Y-4.626
X3.4252Y-2.9724
X3.4252Y-3.4449
X3.4252Y-5.4921
X3.4449Y-4.3307
X3.4449Y-4.626
X3.4843Y-2.9724
X3.4843Y-3.4449
X3.4843Y-5.4331
X3.4843Y-5.5512
X3.5039Y-4.626
X3.5433Y-2.6772
X3.5433Y-2.7953
X3.5433Y-2.9724
X3.5433Y-3.4449
X3.5433Y-4.2323
X3.5433Y-5.4921
X3.6024Y-2.9724
X3.6024Y-3.4449
X3.6024Y-5.5512
X3.622Y-2.6772
X3.622Y-2.7953
X3.6614Y-2.9724
X3.6614Y-3.4449
X3.6713Y-3.4941
X3.6713Y-3.6811
X3.7205Y-3.0118
X3.7205Y-3.0709
X3.7205Y-3.1299
X3.7205Y-3.189
X3.7205Y-3.248
X3.7205Y-3.3071
X3.7205Y-3.3661
X3.7205Y-3.4252
X3.7894Y-3.0118
X3.7894Y-3.0709
X3.7894Y-3.1299
X3.7894Y-3.189
X3.7894Y-3.248
X3.7894Y-3.3071
X3.7894Y-3.3661
X3.7894Y-3.4252
X3.8583Y-3.0118
X3.8583Y-3.0709
X3.8583Y-3.1299
X3.8583Y-3.189
X3.8583Y-3.248
X3.8583Y-3.3071
X3.8583Y-3.3661
X3.8583Y-3.4252
X4.0945Y-3.5925
X4.0945Y-5.187
X4.0945Y-5.374
X4.1043Y-4.7638
X4.1339Y-5.4134
X4.1457Y-4.7638
X4.1732Y-5.4134
X4.1772Y-5.1772
X4.1831Y-3.7935
X4.1831Y-4.7638
X4.2126Y-5.1772
X4.2126Y-5.4134
X4.2224Y-4.7638
X4.2224Y-5.
X4.252Y-4.0453
X4.252Y-5.1772
X4.252Y-5.4134
X4.2618Y-4.7638
X4.2618Y-5.
X4.2815Y-3.8976
X4.2815Y-3.937
X4.3012Y-5.1772
X4.3012Y-5.4134
X4.3406Y-4.7638
X4.3406Y-5.
X4.3406Y-5.1772
X4.3406Y-5.4134
X4.3799Y-4.7638
X4.3799Y-5.
X4.3799Y-5.1772
X4.3799Y-5.4134
X4.4193Y-4.7638
X4.4193Y-5.
X4.4193Y-5.1772
X4.4193Y-5.4134
X4.4587Y-4.7736
X4.4587Y-4.813
X4.4587Y-4.8524
X4.4587Y-4.8917
X4.4587Y-4.9311
X4.4587Y-4.9705
X4.4587Y-5.1969
X4.4587Y-5.2362
X4.4587Y-5.2756
X4.4587Y-5.315
X4.4587Y-5.3543
X4.4587Y-5.3937
X4.5177Y-3.9173
X4.5669Y-3.9173
X4.5866Y-3.7598
X4.6161Y-3.9173
X4.6654Y-3.9173
X4.6654Y-3.9665
X4.6654Y-4.0157
X4.7047Y-1.5748
X4.7244Y-3.6024
X4.748Y-4.3803
X4.7539Y-1.5748
X4.7539Y-1.7028
X4.7539Y-4.2323
X4.7539Y-4.2815
X4.7638Y-3.9173
X4.8031Y-1.5748
X4.8031Y-4.3898
X4.813Y-4.2323
X4.8228Y-3.0118
X4.8945Y-3.624
X4.8986Y-3.9173
X4.9902Y-3.4913
X5.0197Y-3.6811
X5.0197Y-3.9764
X5.1083Y-3.7598
X5.1417Y-1.7165
X5.1575Y-4.0551
X5.1614Y-4.3071
X5.3543Y-3.7205
X5.3543Y-4.0256
X5.3709Y-3.4795
X5.5079Y-3.5592
X5.6043Y-3.4646
X6.122Y-1.1614
X6.3484Y-1.8406
X6.4764Y-1.7717
X6.4876Y-1.6165
X6.5846Y-1.5256
X6.5846Y-1.6437
X6.5846Y-1.7126
X6.6043Y-1.1614
X7.2244Y-1.1614
X7.8051Y-1.6634
X7.815Y-1.5945
X7.815Y-1.8012
X7.8543Y-1.3287
X7.9134Y-1.5354
X7.9134Y-1.7224
X8.3465Y-1.3287
X8.5925Y-1.7323
X8.6504Y-1.6469
X8.7205Y-1.6437
X8.8189Y-1.3287
X9.5591Y-1.5354
X9.6126Y-1.7697
X9.6378Y-1.5354
X9.7283Y-1.7677
X9.7402Y-1.6693
X9.7476Y-1.4439
X9.7874Y-1.5354
X9.7913Y-1.6732
T4
X2.6673Y-5.3004
X2.6772Y-4.4835
X2.6772Y-4.7
X2.6772Y-4.7886
X2.6772Y-4.9953
X2.6772Y-5.0839
X2.7264Y-4.4835
X2.7264Y-4.7
X2.7264Y-4.7886
X2.7264Y-4.9953
X2.7264Y-5.0839
X2.7264Y-5.3004
X2.7756Y-4.4835
X2.7756Y-4.7
X2.7756Y-4.7886
X2.7756Y-4.9953
X2.7756Y-5.0839
X2.7756Y-5.3004
X2.6673Y-2.5591
X2.6772Y-1.7421
X2.6772Y-1.9587
X2.6772Y-2.0472
X2.6772Y-2.2539
X2.6772Y-2.3425
X2.7264Y-1.7421
X2.7264Y-1.9587
X2.7264Y-2.0472
X2.7264Y-2.2539
X2.7264Y-2.3425
X2.7264Y-2.5591
X2.7756Y-1.7421
X2.7756Y-1.9587
X2.7756Y-2.0472
X2.7756Y-2.2539
X2.7756Y-2.3425
X2.7756Y-2.5591
T5
X3.2047Y-1.7992
X3.4016Y-1.7992
X3.1988Y-5.3346
X3.3957Y-5.3346
X3.1969Y-4.5374
X3.3937Y-4.5374
X3.4016Y-3.9213
X3.5984Y-3.9213
X3.1969Y-2.6063
X3.3937Y-2.6063
T6
X7.6067Y-3.2417
X7.6067Y-3.3417
X7.6067Y-3.4417
X7.6067Y-3.5417
X7.6067Y-3.6417
X7.7067Y-3.2417
X7.7067Y-3.3417
X7.7067Y-3.4417
X7.7067Y-3.5417
X7.7067Y-3.6417
X6.5469Y-2.2795
X6.5469Y-2.3795
X6.6469Y-2.2795
X6.6469Y-2.3795
X6.7469Y-2.2795
X6.7469Y-2.3795
X6.8469Y-2.2795
X6.8469Y-2.3795
X6.9469Y-2.2795
X6.9469Y-2.3795
X7.3016Y-5.0931
X7.3016Y-5.1931
X7.4016Y-5.0931
X7.4016Y-5.1931
X7.5016Y-5.0931
X7.5016Y-5.1931
X7.6016Y-5.0931
X7.6016Y-5.1931
X7.7016Y-5.0931
X7.7016Y-5.1931
X7.8016Y-5.0931
X7.8016Y-5.1931
X7.9016Y-5.0931
X7.9016Y-5.1931
X8.0016Y-5.0931
X8.0016Y-5.1931
T7
X9.3102Y-2.8793
X9.3102Y-2.9793
X9.3102Y-3.2096
X9.3102Y-3.3096
X9.5004Y-2.9195
X9.5004Y-3.0195
X9.5004Y-3.1195
X9.5004Y-3.2195
X9.6004Y-2.9695
X9.6004Y-3.0717
X9.6004Y-3.1695
X9.6004Y-3.2695
X9.3102Y-2.1234
X9.3102Y-2.2234
X9.3102Y-2.4537
X9.3102Y-2.5537
X9.5004Y-2.1636
X9.5004Y-2.2636
X9.5004Y-2.3636
X9.5004Y-2.4636
X9.6004Y-2.2136
X9.6004Y-2.3157
X9.6004Y-2.4136
X9.6004Y-2.5136
T8
X2.5445Y-3.5827
X2.5445Y-3.8827
X2.6445Y-3.5827
X2.6445Y-3.8827
X2.8445Y-3.5827
X2.8445Y-3.8827
X3.5315Y-5.748
X3.6693Y-5.748
X3.8071Y-5.748
X3.9449Y-5.748
X4.0827Y-5.748
X3.5354Y-1.2598
X3.6732Y-1.2598
X3.811Y-1.2598
X3.9488Y-1.2598
X4.0866Y-1.2598
X2.3701Y-5.748
X2.5079Y-5.748
X2.6457Y-5.748
X2.7835Y-5.748
X2.9213Y-5.748
X3.0591Y-5.748
X3.1969Y-5.748
X3.3346Y-5.748
X2.3622Y-1.2598
X2.5Y-1.2598
X2.6378Y-1.2598
X2.7756Y-1.2598
X2.9134Y-1.2598
X3.0512Y-1.2598
X3.189Y-1.2598
X3.3268Y-1.2598
T9
X5.7621Y-1.2633
X5.8999Y-1.2633
X6.0377Y-1.2633
X4.7598Y-1.2598
X4.8976Y-1.2598
X5.0354Y-1.2598
X6.7306Y-1.2633
X6.8684Y-1.2633
X7.0062Y-1.2633
X7.144Y-1.2633
X8.8819Y-5.752
X9.0197Y-5.752
X9.1575Y-5.752
X7.9787Y-1.2633
X8.1164Y-1.2633
X8.2542Y-1.2633
X9.9567Y-1.4764
X9.9567Y-1.6142
X5.9724Y-5.752
X6.1102Y-5.752
X6.248Y-5.752
X6.9409Y-5.752
X7.0787Y-5.752
X7.2165Y-5.752
X8.9449Y-1.2638
X9.0827Y-1.2638
X4.7717Y-5.748
X4.9094Y-5.748
X5.0472Y-5.748
X9.9567Y-4.9449
X9.9567Y-5.0827
X9.9567Y-5.2205
X4.2795Y-1.2598
X4.4173Y-1.2598
X4.5551Y-1.2598
X9.3661Y-5.752
X9.5039Y-5.752
X9.6417Y-5.752
X4.4331Y-4.0039
X4.5709Y-4.0039
X7.354Y-1.2639
X7.4918Y-1.2639
X7.6296Y-1.2639
X7.7674Y-1.2639
X9.9567Y-4.4665
X9.9567Y-4.6043
X9.9567Y-4.7421
X9.2874Y-1.2638
X9.4252Y-1.2638
X7.9134Y-5.752
X8.0512Y-5.752
X8.189Y-5.752
X9.9567Y-3.9862
X9.9567Y-4.124
X9.9567Y-4.2618
X4.2913Y-5.748
X4.4291Y-5.748
X4.5669Y-5.748
X8.459Y-1.2633
X8.5968Y-1.2633
X8.7346Y-1.2633
X7.4291Y-5.752
X7.5669Y-5.752
X7.7047Y-5.752
X5.2402Y-1.2638
X5.378Y-1.2638
X5.5157Y-1.2638
X5.252Y-5.748
X5.3898Y-5.748
X5.5276Y-5.748
X8.3976Y-5.752
X8.5354Y-5.752
X8.6732Y-5.752
X6.4567Y-5.752
X6.5945Y-5.752
X6.7323Y-5.752
X2.1234Y-3.0551
X2.1234Y-3.1929
X9.6299Y-1.2638
X9.7677Y-1.2638
X6.2464Y-1.2633
X6.3842Y-1.2633
X6.522Y-1.2633
T10
X2.574Y-4.5917
X2.574Y-4.8917
X2.574Y-5.1917
X2.874Y-4.5917
X2.874Y-4.8917
X2.874Y-5.1917
X2.574Y-1.8504
X2.574Y-2.1504
X2.574Y-2.4504
X2.874Y-1.8504
X2.874Y-2.1504
X2.874Y-2.4504
T11
X9.7303Y-2.7835
X9.7303Y-3.4055
X9.7303Y-2.0276
X9.7303Y-2.6496
T12
X10.0787Y-1.1417
X10.0787Y-5.8661
X2.0079Y-5.8661
X2.0079Y-1.1417
T4
X10.2027Y-3.5665G85X10.2323Y-3.5665
G05
X10.2323Y-3.8264G85X10.2027Y-3.8264
G05
T0
M30
